<svg width="822" height="284" viewBox="0 0 822 284" fill="none" xmlns="http://www.w3.org/2000/svg">
<rect width="819" height="247.747" transform="translate(1 35)" fill="#3AB1BA"/>
<path d="M109.928 80.0803C111.429 80.0803 112.806 80.3988 114.057 81.0358C115.308 81.65 116.298 82.5373 117.026 83.6975C117.777 84.835 118.152 86.1432 118.152 87.6219C118.152 89.2372 117.731 90.6704 116.889 91.9217C116.07 93.1502 114.944 94.1057 113.511 94.7882C112.1 95.4479 110.519 95.7778 108.768 95.7778C105.355 95.7778 102.659 94.7654 100.68 92.7407C98.7007 90.7159 97.711 87.8039 97.711 84.0047C97.711 81.2747 98.2343 78.9314 99.2808 76.9749C100.35 74.9957 101.84 73.4942 103.751 72.4704C105.662 71.4467 107.88 70.9348 110.406 70.9348C111.771 70.9348 113.067 71.0827 114.296 71.3784C115.524 71.6742 116.571 72.1064 117.435 72.6752L114.978 77.5209C113.818 76.7019 112.351 76.2924 110.576 76.2924C108.847 76.2924 107.448 76.7702 106.379 77.7257C105.31 78.6812 104.695 80.0575 104.536 81.8548C105.901 80.6718 107.698 80.0803 109.928 80.0803ZM108.358 90.9662C109.314 90.9662 110.087 90.6932 110.679 90.1472C111.293 89.6012 111.6 88.8618 111.6 87.929C111.6 87.019 111.293 86.291 110.679 85.745C110.087 85.199 109.302 84.926 108.324 84.926C107.346 84.926 106.549 85.2104 105.935 85.7792C105.321 86.3252 105.014 87.0532 105.014 87.9632C105.014 88.8504 105.31 89.5784 105.901 90.1472C106.515 90.6932 107.334 90.9662 108.358 90.9662ZM124.905 84.3459C123.107 84.3459 121.64 83.7544 120.503 82.5714C119.365 81.3884 118.796 79.7732 118.796 77.7257C118.796 76.3834 119.058 75.2118 119.581 74.2108C120.104 73.2098 120.821 72.4477 121.731 71.9244C122.664 71.3784 123.722 71.1054 124.905 71.1054C126.725 71.1054 128.203 71.7083 129.341 72.914C130.478 74.097 131.047 75.7009 131.047 77.7257C131.047 79.7732 130.478 81.3884 129.341 82.5714C128.203 83.7544 126.725 84.3459 124.905 84.3459ZM139.032 71.4125H143.946L127.635 95.3H122.721L139.032 71.4125ZM124.905 81.104C125.519 81.104 126.008 80.831 126.372 80.285C126.736 79.739 126.918 78.8859 126.918 77.7257C126.918 76.5654 126.736 75.7123 126.372 75.1663C126.008 74.6203 125.519 74.3473 124.905 74.3473C124.313 74.3473 123.824 74.6317 123.437 75.2004C123.073 75.7464 122.891 76.5882 122.891 77.7257C122.891 78.8632 123.073 79.7163 123.437 80.285C123.824 80.831 124.313 81.104 124.905 81.104ZM141.762 95.6072C139.942 95.6072 138.464 95.0157 137.326 93.8327C136.211 92.6497 135.654 91.0344 135.654 88.9869C135.654 86.9622 136.223 85.3583 137.36 84.1753C138.498 82.9695 139.965 82.3667 141.762 82.3667C143.582 82.3667 145.061 82.9695 146.199 84.1753C147.336 85.3583 147.905 86.9622 147.905 88.9869C147.905 91.0344 147.336 92.6497 146.199 93.8327C145.061 95.0157 143.582 95.6072 141.762 95.6072ZM141.762 92.3653C142.377 92.3653 142.866 92.0923 143.23 91.5463C143.594 91.0003 143.776 90.1472 143.776 88.9869C143.776 87.8267 143.594 86.9735 143.23 86.4275C142.866 85.8815 142.377 85.6085 141.762 85.6085C141.148 85.6085 140.659 85.8815 140.295 86.4275C139.931 86.9735 139.749 87.8267 139.749 88.9869C139.749 90.1472 139.931 91.0003 140.295 91.5463C140.659 92.0923 141.148 92.3653 141.762 92.3653Z" fill="white"/>
<path d="M243.765 71.4125V95.3H237.008V76.6337H232.572V71.4125H243.765ZM257.902 95.7778C255.855 95.7778 254.035 95.2887 252.442 94.3104C250.85 93.3322 249.598 91.9103 248.688 90.0448C247.801 88.1565 247.357 85.927 247.357 83.3563C247.357 80.7855 247.801 78.5674 248.688 76.7019C249.598 74.8137 250.85 73.3804 252.442 72.4022C254.035 71.4239 255.855 70.9348 257.902 70.9348C259.927 70.9348 261.735 71.4239 263.328 72.4022C264.92 73.3804 266.16 74.8137 267.048 76.7019C267.958 78.5674 268.413 80.7855 268.413 83.3563C268.413 85.927 267.958 88.1565 267.048 90.0448C266.16 91.9103 264.92 93.3322 263.328 94.3104C261.735 95.2887 259.927 95.7778 257.902 95.7778ZM257.902 90.2495C259.04 90.2495 259.938 89.7035 260.598 88.6115C261.28 87.4968 261.622 85.745 261.622 83.3563C261.622 80.9675 261.28 79.2272 260.598 78.1352C259.938 77.0204 259.04 76.463 257.902 76.463C256.742 76.463 255.82 77.0204 255.138 78.1352C254.478 79.2272 254.148 80.9675 254.148 83.3563C254.148 85.745 254.478 87.4968 255.138 88.6115C255.82 89.7035 256.742 90.2495 257.902 90.2495ZM276.417 84.3459C274.62 84.3459 273.153 83.7544 272.015 82.5714C270.878 81.3884 270.309 79.7732 270.309 77.7257C270.309 76.3834 270.57 75.2118 271.094 74.2108C271.617 73.2098 272.334 72.4477 273.244 71.9244C274.176 71.3784 275.234 71.1054 276.417 71.1054C278.237 71.1054 279.716 71.7083 280.853 72.914C281.991 74.097 282.56 75.7009 282.56 77.7257C282.56 79.7732 281.991 81.3884 280.853 82.5714C279.716 83.7544 278.237 84.3459 276.417 84.3459ZM290.545 71.4125H295.459L279.147 95.3H274.233L290.545 71.4125ZM276.417 81.104C277.031 81.104 277.521 80.831 277.885 80.285C278.249 79.739 278.431 78.8859 278.431 77.7257C278.431 76.5654 278.249 75.7123 277.885 75.1663C277.521 74.6203 277.031 74.3473 276.417 74.3473C275.826 74.3473 275.337 74.6317 274.95 75.2004C274.586 75.7464 274.404 76.5882 274.404 77.7257C274.404 78.8632 274.586 79.7163 274.95 80.285C275.337 80.831 275.826 81.104 276.417 81.104ZM293.275 95.6072C291.455 95.6072 289.976 95.0157 288.839 93.8327C287.724 92.6497 287.167 91.0344 287.167 88.9869C287.167 86.9622 287.735 85.3583 288.873 84.1753C290.01 82.9695 291.478 82.3667 293.275 82.3667C295.095 82.3667 296.574 82.9695 297.711 84.1753C298.849 85.3583 299.417 86.9622 299.417 88.9869C299.417 91.0344 298.849 92.6497 297.711 93.8327C296.574 95.0157 295.095 95.6072 293.275 95.6072ZM293.275 92.3653C293.889 92.3653 294.378 92.0923 294.742 91.5463C295.106 91.0003 295.288 90.1472 295.288 88.9869C295.288 87.8267 295.106 86.9735 294.742 86.4275C294.378 85.8815 293.889 85.6085 293.275 85.6085C292.661 85.6085 292.172 85.8815 291.808 86.4275C291.444 86.9735 291.262 87.8267 291.262 88.9869C291.262 90.1472 291.444 91.0003 291.808 91.5463C292.172 92.0923 292.661 92.3653 293.275 92.3653Z" fill="white"/>
<path d="M381.563 80.0803C383.064 80.0803 384.44 80.3988 385.692 81.0358C386.943 81.65 387.933 82.5373 388.661 83.6975C389.411 84.835 389.787 86.1432 389.787 87.6219C389.787 89.2372 389.366 90.6704 388.524 91.9217C387.705 93.1502 386.579 94.1057 385.146 94.7882C383.735 95.4479 382.154 95.7778 380.402 95.7778C376.99 95.7778 374.294 94.7654 372.315 92.7407C370.335 90.7159 369.346 87.8039 369.346 84.0047C369.346 81.2747 369.869 78.9314 370.916 76.9749C371.985 74.9957 373.475 73.4942 375.386 72.4704C377.297 71.4467 379.515 70.9348 382.04 70.9348C383.405 70.9348 384.702 71.0827 385.931 71.3784C387.159 71.6742 388.206 72.1064 389.07 72.6752L386.613 77.5209C385.453 76.7019 383.985 76.2924 382.211 76.2924C380.482 76.2924 379.083 76.7702 378.014 77.7257C376.944 78.6812 376.33 80.0575 376.171 81.8548C377.536 80.6718 379.333 80.0803 381.563 80.0803ZM379.993 90.9662C380.948 90.9662 381.722 90.6932 382.313 90.1472C382.928 89.6012 383.235 88.8618 383.235 87.929C383.235 87.019 382.928 86.291 382.313 85.745C381.722 85.199 380.937 84.926 379.959 84.926C378.98 84.926 378.184 85.2104 377.57 85.7792C376.956 86.3252 376.649 87.0532 376.649 87.9632C376.649 88.8504 376.944 89.5784 377.536 90.1472C378.15 90.6932 378.969 90.9662 379.993 90.9662ZM400.243 70.9348C403.678 70.9348 406.386 71.9472 408.365 73.9719C410.344 75.9967 411.334 78.9087 411.334 82.7079C411.334 85.4379 410.799 87.7925 409.73 89.7718C408.683 91.7283 407.193 93.2184 405.259 94.2422C403.348 95.2659 401.13 95.7778 398.605 95.7778C397.263 95.7778 395.977 95.6185 394.749 95.3C393.52 95.0043 392.474 94.5834 391.609 94.0374L394.066 89.1917C395.227 90.0107 396.694 90.4202 398.469 90.4202C400.175 90.4202 401.551 89.9538 402.598 89.021C403.667 88.0655 404.293 86.6892 404.475 84.8919C403.11 86.0522 401.324 86.6323 399.117 86.6323C397.615 86.6323 396.239 86.3252 394.988 85.7109C393.737 85.0739 392.736 84.1867 391.985 83.0492C391.257 81.8889 390.893 80.5694 390.893 79.0907C390.893 77.4754 391.302 76.0535 392.121 74.825C392.963 73.5738 394.089 72.6183 395.5 71.9585C396.933 71.276 398.514 70.9348 400.243 70.9348ZM400.721 81.7865C401.699 81.7865 402.495 81.5135 403.11 80.9675C403.724 80.3988 404.031 79.6594 404.031 78.7494C404.031 77.8622 403.724 77.1455 403.11 76.5995C402.518 76.0308 401.71 75.7464 400.687 75.7464C399.731 75.7464 398.946 76.0194 398.332 76.5654C397.741 77.1114 397.445 77.8508 397.445 78.7835C397.445 79.6935 397.741 80.4215 398.332 80.9675C398.946 81.5135 399.743 81.7865 400.721 81.7865ZM419.367 84.3459C417.57 84.3459 416.103 83.7544 414.965 82.5714C413.828 81.3884 413.259 79.7732 413.259 77.7257C413.259 76.3834 413.52 75.2118 414.044 74.2108C414.567 73.2098 415.284 72.4477 416.194 71.9244C417.126 71.3784 418.184 71.1054 419.367 71.1054C421.187 71.1054 422.666 71.7083 423.803 72.914C424.941 74.097 425.51 75.7009 425.51 77.7257C425.51 79.7732 424.941 81.3884 423.803 82.5714C422.666 83.7544 421.187 84.3459 419.367 84.3459ZM433.495 71.4125H438.409L422.097 95.3H417.183L433.495 71.4125ZM419.367 81.104C419.981 81.104 420.471 80.831 420.835 80.285C421.199 79.739 421.381 78.8859 421.381 77.7257C421.381 76.5654 421.199 75.7123 420.835 75.1663C420.471 74.6203 419.981 74.3473 419.367 74.3473C418.776 74.3473 418.287 74.6317 417.9 75.2004C417.536 75.7464 417.354 76.5882 417.354 77.7257C417.354 78.8632 417.536 79.7163 417.9 80.285C418.287 80.831 418.776 81.104 419.367 81.104ZM436.225 95.6072C434.405 95.6072 432.926 95.0157 431.789 93.8327C430.674 92.6497 430.117 91.0344 430.117 88.9869C430.117 86.9622 430.685 85.3583 431.823 84.1753C432.96 82.9695 434.428 82.3667 436.225 82.3667C438.045 82.3667 439.524 82.9695 440.661 84.1753C441.799 85.3583 442.367 86.9622 442.367 88.9869C442.367 91.0344 441.799 92.6497 440.661 93.8327C439.524 95.0157 438.045 95.6072 436.225 95.6072ZM436.225 92.3653C436.839 92.3653 437.328 92.0923 437.692 91.5463C438.056 91.0003 438.238 90.1472 438.238 88.9869C438.238 87.8267 438.056 86.9735 437.692 86.4275C437.328 85.8815 436.839 85.6085 436.225 85.6085C435.611 85.6085 435.122 85.8815 434.758 86.4275C434.394 86.9735 434.212 87.8267 434.212 88.9869C434.212 90.1472 434.394 91.0003 434.758 91.5463C435.122 92.0923 435.611 92.3653 436.225 92.3653Z" fill="white"/>
<path d="M523.624 89.9424V95.3H505.026V91.0685L513.966 82.7079C514.831 81.8889 515.411 81.195 515.707 80.6263C516.003 80.0348 516.15 79.4433 516.15 78.8518C516.15 78.0783 515.889 77.4754 515.366 77.0432C514.842 76.6109 514.08 76.3948 513.079 76.3948C512.192 76.3948 511.373 76.5995 510.622 77.009C509.894 77.3958 509.291 77.9645 508.814 78.7153L503.797 75.917C504.73 74.37 506.038 73.1529 507.722 72.2657C509.405 71.3784 511.396 70.9348 513.693 70.9348C515.513 70.9348 517.117 71.2305 518.505 71.822C519.916 72.4135 521.008 73.2667 521.781 74.3814C522.577 75.4734 522.975 76.7474 522.975 78.2034C522.975 79.5002 522.691 80.7287 522.122 81.8889C521.576 83.0264 520.507 84.3232 518.915 85.7792L514.41 89.9424H523.624ZM535.828 71.4125V95.3H529.071V76.6337H524.635V71.4125H535.828ZM545.119 84.3459C543.322 84.3459 541.855 83.7544 540.717 82.5714C539.58 81.3884 539.011 79.7732 539.011 77.7257C539.011 76.3834 539.273 75.2118 539.796 74.2108C540.319 73.2098 541.036 72.4477 541.946 71.9244C542.879 71.3784 543.936 71.1054 545.119 71.1054C546.939 71.1054 548.418 71.7083 549.556 72.914C550.693 74.097 551.262 75.7009 551.262 77.7257C551.262 79.7732 550.693 81.3884 549.556 82.5714C548.418 83.7544 546.939 84.3459 545.119 84.3459ZM559.247 71.4125H564.161L547.849 95.3H542.935L559.247 71.4125ZM545.119 81.104C545.734 81.104 546.223 80.831 546.587 80.285C546.951 79.739 547.133 78.8859 547.133 77.7257C547.133 76.5654 546.951 75.7123 546.587 75.1663C546.223 74.6203 545.734 74.3473 545.119 74.3473C544.528 74.3473 544.039 74.6317 543.652 75.2004C543.288 75.7464 543.106 76.5882 543.106 77.7257C543.106 78.8632 543.288 79.7163 543.652 80.285C544.039 80.831 544.528 81.104 545.119 81.104ZM561.977 95.6072C560.157 95.6072 558.678 95.0157 557.541 93.8327C556.426 92.6497 555.869 91.0344 555.869 88.9869C555.869 86.9622 556.438 85.3583 557.575 84.1753C558.713 82.9695 560.18 82.3667 561.977 82.3667C563.797 82.3667 565.276 82.9695 566.413 84.1753C567.551 85.3583 568.12 86.9622 568.12 88.9869C568.12 91.0344 567.551 92.6497 566.413 93.8327C565.276 95.0157 563.797 95.6072 561.977 95.6072ZM561.977 92.3653C562.591 92.3653 563.081 92.0923 563.445 91.5463C563.809 91.0003 563.991 90.1472 563.991 88.9869C563.991 87.8267 563.809 86.9735 563.445 86.4275C563.081 85.8815 562.591 85.6085 561.977 85.6085C561.363 85.6085 560.874 85.8815 560.51 86.4275C560.146 86.9735 559.964 87.8267 559.964 88.9869C559.964 90.1472 560.146 91.0003 560.51 91.5463C560.874 92.0923 561.363 92.3653 561.977 92.3653Z" fill="white"/>
<path d="M659.442 89.9424V95.3H640.844V91.0685L649.785 82.7079C650.649 81.8889 651.229 81.195 651.525 80.6263C651.821 80.0348 651.969 79.4433 651.969 78.8518C651.969 78.0783 651.707 77.4754 651.184 77.0432C650.661 76.6109 649.899 76.3948 648.898 76.3948C648.01 76.3948 647.191 76.5995 646.441 77.009C645.713 77.3958 645.11 77.9645 644.632 78.7153L639.616 75.917C640.548 74.37 641.856 73.1529 643.54 72.2657C645.223 71.3784 647.214 70.9348 649.512 70.9348C651.332 70.9348 652.936 71.2305 654.323 71.822C655.734 72.4135 656.826 73.2667 657.599 74.3814C658.396 75.4734 658.794 76.7474 658.794 78.2034C658.794 79.5002 658.509 80.7287 657.941 81.8889C657.395 83.0264 656.325 84.3232 654.733 85.7792L650.228 89.9424H659.442ZM667.441 84.3459C665.644 84.3459 664.176 83.7544 663.039 82.5714C661.901 81.3884 661.333 79.7732 661.333 77.7257C661.333 76.3834 661.594 75.2118 662.118 74.2108C662.641 73.2098 663.357 72.4477 664.267 71.9244C665.2 71.3784 666.258 71.1054 667.441 71.1054C669.261 71.1054 670.74 71.7083 671.877 72.914C673.015 74.097 673.584 75.7009 673.584 77.7257C673.584 79.7732 673.015 81.3884 671.877 82.5714C670.74 83.7544 669.261 84.3459 667.441 84.3459ZM681.569 71.4125H686.483L670.171 95.3H665.257L681.569 71.4125ZM667.441 81.104C668.055 81.104 668.544 80.831 668.908 80.285C669.272 79.739 669.454 78.8859 669.454 77.7257C669.454 76.5654 669.272 75.7123 668.908 75.1663C668.544 74.6203 668.055 74.3473 667.441 74.3473C666.85 74.3473 666.36 74.6317 665.974 75.2004C665.61 75.7464 665.428 76.5882 665.428 77.7257C665.428 78.8632 665.61 79.7163 665.974 80.285C666.36 80.831 666.85 81.104 667.441 81.104ZM684.299 95.6072C682.479 95.6072 681 95.0157 679.863 93.8327C678.748 92.6497 678.19 91.0344 678.19 88.9869C678.19 86.9622 678.759 85.3583 679.897 84.1753C681.034 82.9695 682.502 82.3667 684.299 82.3667C686.119 82.3667 687.598 82.9695 688.735 84.1753C689.873 85.3583 690.441 86.9622 690.441 88.9869C690.441 91.0344 689.873 92.6497 688.735 93.8327C687.598 95.0157 686.119 95.6072 684.299 95.6072ZM684.299 92.3653C684.913 92.3653 685.402 92.0923 685.766 91.5463C686.13 91.0003 686.312 90.1472 686.312 88.9869C686.312 87.8267 686.13 86.9735 685.766 86.4275C685.402 85.8815 684.913 85.6085 684.299 85.6085C683.685 85.6085 683.195 85.8815 682.831 86.4275C682.467 86.9735 682.285 87.8267 682.285 88.9869C682.285 90.1472 682.467 91.0003 682.831 91.5463C683.195 92.0923 683.685 92.3653 684.299 92.3653Z" fill="white"/>
<path d="M104.963 103.716V111.838H103.095V105.247H99.4282V111.838H97.5602V103.716H104.963ZM113.09 105.595L110.271 112.22C109.985 112.94 109.629 113.446 109.204 113.74C108.786 114.034 108.279 114.181 107.684 114.181C107.359 114.181 107.038 114.131 106.721 114.03C106.404 113.93 106.144 113.791 105.943 113.613L106.605 112.325C106.744 112.449 106.902 112.545 107.08 112.615C107.266 112.685 107.448 112.719 107.626 112.719C107.873 112.719 108.074 112.657 108.229 112.534C108.384 112.418 108.523 112.22 108.647 111.942L108.67 111.884L105.966 105.595H107.834L109.586 109.83L111.35 105.595H113.09ZM113.964 105.595H115.762V108.032H118.477V105.595H120.287V111.838H118.477V109.505H115.762V111.838H113.964V105.595ZM124.769 109.471H123.83V111.838H122.02V105.595H123.83V108.02H124.804L126.498 105.595H128.424L126.243 108.589L128.575 111.838H126.44L124.769 109.471ZM134.651 107.08H132.54V111.838H130.741V107.08H128.63V105.595H134.651V107.08ZM97.421 120.595H99.2194V124.308L102.259 120.595H103.918V126.838H102.12V123.125L99.0917 126.838H97.421V120.595ZM105.658 120.595H107.457V123.032H110.172V120.595H111.982V126.838H110.172V124.505H107.457V126.838H105.658V120.595ZM122.335 123.693C122.335 124.66 122.01 125.426 121.36 125.991C120.718 126.547 119.798 126.868 118.599 126.954V129.088H116.94V126.954C115.741 126.868 114.817 126.551 114.167 126.002C113.525 125.445 113.204 124.676 113.204 123.693C113.204 122.726 113.521 121.976 114.155 121.442C114.797 120.909 115.725 120.599 116.94 120.514V118.228H118.599V120.514C119.798 120.599 120.718 120.913 121.36 121.454C122.01 121.995 122.335 122.742 122.335 123.693ZM114.956 123.693C114.956 124.25 115.114 124.679 115.431 124.981C115.749 125.283 116.251 125.472 116.94 125.55V121.918C116.251 121.988 115.749 122.169 115.431 122.463C115.114 122.75 114.956 123.16 114.956 123.693ZM118.599 125.55C119.287 125.472 119.79 125.283 120.107 124.981C120.432 124.679 120.595 124.25 120.595 123.693C120.595 123.16 120.432 122.75 120.107 122.463C119.79 122.169 119.287 121.988 118.599 121.918V125.55ZM126.484 126.93C125.827 126.93 125.235 126.795 124.709 126.524C124.191 126.246 123.785 125.863 123.491 125.376C123.197 124.888 123.05 124.335 123.05 123.716C123.05 123.098 123.197 122.545 123.491 122.057C123.785 121.57 124.191 121.191 124.709 120.92C125.235 120.642 125.827 120.503 126.484 120.503C127.142 120.503 127.73 120.642 128.248 120.92C128.766 121.191 129.172 121.57 129.466 122.057C129.76 122.545 129.907 123.098 129.907 123.716C129.907 124.335 129.76 124.888 129.466 125.376C129.172 125.863 128.766 126.246 128.248 126.524C127.73 126.795 127.142 126.93 126.484 126.93ZM126.484 125.445C126.949 125.445 127.328 125.291 127.621 124.981C127.923 124.664 128.074 124.242 128.074 123.716C128.074 123.19 127.923 122.773 127.621 122.463C127.328 122.146 126.949 121.988 126.484 121.988C126.02 121.988 125.637 122.146 125.336 122.463C125.034 122.773 124.883 123.19 124.883 123.716C124.883 124.242 125.034 124.664 125.336 124.981C125.637 125.291 126.02 125.445 126.484 125.445ZM136.153 122.08H132.95V126.838H131.152V120.595H136.153V122.08ZM140.79 120.503C141.37 120.503 141.896 120.638 142.368 120.909C142.847 121.172 143.223 121.547 143.493 122.034C143.764 122.514 143.899 123.074 143.899 123.716C143.899 124.358 143.764 124.923 143.493 125.41C143.223 125.89 142.847 126.265 142.368 126.536C141.896 126.799 141.37 126.93 140.79 126.93C139.993 126.93 139.367 126.679 138.91 126.176V129.088H137.1V120.595H138.829V121.315C139.278 120.773 139.931 120.503 140.79 120.503ZM140.477 125.445C140.941 125.445 141.32 125.291 141.614 124.981C141.915 124.664 142.066 124.242 142.066 123.716C142.066 123.19 141.915 122.773 141.614 122.463C141.32 122.146 140.941 121.988 140.477 121.988C140.013 121.988 139.63 122.146 139.328 122.463C139.034 122.773 138.887 123.19 138.887 123.716C138.887 124.242 139.034 124.664 139.328 124.981C139.63 125.291 140.013 125.445 140.477 125.445ZM147.491 120.503C148.458 120.503 149.2 120.735 149.719 121.199C150.237 121.655 150.496 122.347 150.496 123.276V126.838H148.802V126.06C148.462 126.64 147.827 126.93 146.899 126.93C146.42 126.93 146.002 126.849 145.646 126.687C145.298 126.524 145.031 126.3 144.846 126.014C144.66 125.728 144.567 125.403 144.567 125.039C144.567 124.459 144.784 124.003 145.217 123.67C145.658 123.337 146.335 123.171 147.247 123.171H148.686C148.686 122.777 148.566 122.475 148.326 122.266C148.087 122.05 147.727 121.941 147.247 121.941C146.915 121.941 146.586 121.995 146.261 122.104C145.944 122.204 145.673 122.343 145.449 122.521L144.799 121.257C145.139 121.017 145.546 120.831 146.017 120.7C146.497 120.568 146.988 120.503 147.491 120.503ZM147.352 125.712C147.661 125.712 147.936 125.642 148.175 125.503C148.415 125.356 148.585 125.144 148.686 124.865V124.227H147.445C146.702 124.227 146.331 124.471 146.331 124.958C146.331 125.19 146.42 125.376 146.598 125.515C146.783 125.646 147.035 125.712 147.352 125.712ZM160.689 123.693C160.689 124.66 160.364 125.426 159.714 125.991C159.072 126.547 158.152 126.868 156.953 126.954V129.088H155.294V126.954C154.095 126.868 153.171 126.551 152.521 126.002C151.879 125.445 151.558 124.676 151.558 123.693C151.558 122.726 151.875 121.976 152.509 121.442C153.151 120.909 154.079 120.599 155.294 120.514V118.228H156.953V120.514C158.152 120.599 159.072 120.913 159.714 121.454C160.364 121.995 160.689 122.742 160.689 123.693ZM153.31 123.693C153.31 124.25 153.468 124.679 153.785 124.981C154.103 125.283 154.605 125.472 155.294 125.55V121.918C154.605 121.988 154.103 122.169 153.785 122.463C153.468 122.75 153.31 123.16 153.31 123.693ZM156.953 125.55C157.641 125.472 158.144 125.283 158.461 124.981C158.786 124.679 158.949 124.25 158.949 123.693C158.949 123.16 158.786 122.75 158.461 122.463C158.144 122.169 157.641 121.988 156.953 121.918V125.55ZM161.915 120.595H163.713V124.308L166.753 120.595H168.412V126.838H166.614V123.125L163.585 126.838H161.915V120.595ZM172.902 124.471H171.962V126.838H170.152V120.595H171.962V123.02H172.936L174.63 120.595H176.556L174.375 123.589L176.707 126.838H174.572L172.902 124.471ZM177.596 120.595H179.394V124.308L182.434 120.595H184.093V126.838H182.295V123.125L179.267 126.838H177.596V120.595Z" fill="white"/>
<path d="M240.779 103.716V111.838H238.911V105.247H235.245V111.838H233.377V103.716H240.779ZM248.907 105.595L246.087 112.22C245.801 112.94 245.445 113.446 245.02 113.74C244.602 114.034 244.096 114.181 243.5 114.181C243.175 114.181 242.854 114.131 242.537 114.03C242.22 113.93 241.961 113.791 241.76 113.613L242.421 112.325C242.56 112.449 242.719 112.545 242.897 112.615C243.082 112.685 243.264 112.719 243.442 112.719C243.69 112.719 243.891 112.657 244.045 112.534C244.2 112.418 244.339 112.22 244.463 111.942L244.486 111.884L241.783 105.595H243.651L245.403 109.83L247.166 105.595H248.907ZM249.78 105.595H251.578V108.032H254.293V105.595H256.103V111.838H254.293V109.505H251.578V111.838H249.78V105.595ZM260.586 109.471H259.646V111.838H257.836V105.595H259.646V108.02H260.621L262.315 105.595H264.241L262.059 108.589L264.391 111.838H262.257L260.586 109.471ZM270.468 107.08H268.356V111.838H266.558V107.08H264.446V105.595H270.468V107.08ZM233.237 120.595H235.036V124.308L238.076 120.595H239.735V126.838H237.936V123.125L234.908 126.838H233.237V120.595ZM241.475 120.595H243.273V123.032H245.988V120.595H247.798V126.838H245.988V124.505H243.273V126.838H241.475V120.595ZM258.151 123.693C258.151 124.66 257.827 125.426 257.177 125.991C256.535 126.547 255.614 126.868 254.415 126.954V129.088H252.756V126.954C251.557 126.868 250.633 126.551 249.983 126.002C249.341 125.445 249.02 124.676 249.02 123.693C249.02 122.726 249.337 121.976 249.972 121.442C250.614 120.909 251.542 120.599 252.756 120.514V118.228H254.415V120.514C255.614 120.599 256.535 120.913 257.177 121.454C257.827 121.995 258.151 122.742 258.151 123.693ZM250.772 123.693C250.772 124.25 250.931 124.679 251.248 124.981C251.565 125.283 252.068 125.472 252.756 125.55V121.918C252.068 121.988 251.565 122.169 251.248 122.463C250.931 122.75 250.772 123.16 250.772 123.693ZM254.415 125.55C255.104 125.472 255.607 125.283 255.924 124.981C256.249 124.679 256.411 124.25 256.411 123.693C256.411 123.16 256.249 122.75 255.924 122.463C255.607 122.169 255.104 121.988 254.415 121.918V125.55ZM262.301 126.93C261.643 126.93 261.052 126.795 260.526 126.524C260.007 126.246 259.601 125.863 259.307 125.376C259.013 124.888 258.866 124.335 258.866 123.716C258.866 123.098 259.013 122.545 259.307 122.057C259.601 121.57 260.007 121.191 260.526 120.92C261.052 120.642 261.643 120.503 262.301 120.503C262.958 120.503 263.546 120.642 264.064 120.92C264.583 121.191 264.989 121.57 265.283 122.057C265.577 122.545 265.724 123.098 265.724 123.716C265.724 124.335 265.577 124.888 265.283 125.376C264.989 125.863 264.583 126.246 264.064 126.524C263.546 126.795 262.958 126.93 262.301 126.93ZM262.301 125.445C262.765 125.445 263.144 125.291 263.438 124.981C263.74 124.664 263.89 124.242 263.89 123.716C263.89 123.19 263.74 122.773 263.438 122.463C263.144 122.146 262.765 121.988 262.301 121.988C261.837 121.988 261.454 122.146 261.152 122.463C260.851 122.773 260.7 123.19 260.7 123.716C260.7 124.242 260.851 124.664 261.152 124.981C261.454 125.291 261.837 125.445 262.301 125.445ZM271.969 122.08H268.767V126.838H266.968V120.595H271.969V122.08ZM276.606 120.503C277.186 120.503 277.712 120.638 278.184 120.909C278.664 121.172 279.039 121.547 279.31 122.034C279.58 122.514 279.716 123.074 279.716 123.716C279.716 124.358 279.58 124.923 279.31 125.41C279.039 125.89 278.664 126.265 278.184 126.536C277.712 126.799 277.186 126.93 276.606 126.93C275.81 126.93 275.183 126.679 274.727 126.176V129.088H272.917V120.595H274.646V121.315C275.094 120.773 275.748 120.503 276.606 120.503ZM276.293 125.445C276.757 125.445 277.136 125.291 277.43 124.981C277.732 124.664 277.883 124.242 277.883 123.716C277.883 123.19 277.732 122.773 277.43 122.463C277.136 122.146 276.757 121.988 276.293 121.988C275.829 121.988 275.446 122.146 275.144 122.463C274.85 122.773 274.704 123.19 274.704 123.716C274.704 124.242 274.85 124.664 275.144 124.981C275.446 125.291 275.829 125.445 276.293 125.445ZM283.307 120.503C284.274 120.503 285.017 120.735 285.535 121.199C286.053 121.655 286.312 122.347 286.312 123.276V126.838H284.618V126.06C284.278 126.64 283.644 126.93 282.716 126.93C282.236 126.93 281.818 126.849 281.463 126.687C281.114 126.524 280.848 126.3 280.662 126.014C280.476 125.728 280.383 125.403 280.383 125.039C280.383 124.459 280.6 124.003 281.033 123.67C281.474 123.337 282.151 123.171 283.064 123.171H284.502C284.502 122.777 284.382 122.475 284.143 122.266C283.903 122.05 283.543 121.941 283.064 121.941C282.731 121.941 282.402 121.995 282.077 122.104C281.76 122.204 281.49 122.343 281.265 122.521L280.616 121.257C280.956 121.017 281.362 120.831 281.834 120.7C282.313 120.568 282.805 120.503 283.307 120.503ZM283.168 125.712C283.477 125.712 283.752 125.642 283.992 125.503C284.232 125.356 284.402 125.144 284.502 124.865V124.227H283.261C282.518 124.227 282.147 124.471 282.147 124.958C282.147 125.19 282.236 125.376 282.414 125.515C282.6 125.646 282.851 125.712 283.168 125.712ZM296.505 123.693C296.505 124.66 296.18 125.426 295.531 125.991C294.889 126.547 293.968 126.868 292.769 126.954V129.088H291.11V126.954C289.911 126.868 288.987 126.551 288.337 126.002C287.695 125.445 287.374 124.676 287.374 123.693C287.374 122.726 287.691 121.976 288.326 121.442C288.968 120.909 289.896 120.599 291.11 120.514V118.228H292.769V120.514C293.968 120.599 294.889 120.913 295.531 121.454C296.18 121.995 296.505 122.742 296.505 123.693ZM289.126 123.693C289.126 124.25 289.285 124.679 289.602 124.981C289.919 125.283 290.422 125.472 291.11 125.55V121.918C290.422 121.988 289.919 122.169 289.602 122.463C289.285 122.75 289.126 123.16 289.126 123.693ZM292.769 125.55C293.458 125.472 293.961 125.283 294.278 124.981C294.603 124.679 294.765 124.25 294.765 123.693C294.765 123.16 294.603 122.75 294.278 122.463C293.961 122.169 293.458 121.988 292.769 121.918V125.55ZM297.731 120.595H299.529V124.308L302.569 120.595H304.228V126.838H302.43V123.125L299.402 126.838H297.731V120.595ZM308.718 124.471H307.778V126.838H305.968V120.595H307.778V123.02H308.753L310.447 120.595H312.373L310.192 123.589L312.524 126.838H310.389L308.718 124.471ZM313.412 120.595H315.211V124.308L318.251 120.595H319.91V126.838H318.111V123.125L315.083 126.838H313.412V120.595Z" fill="white"/>
<path d="M376.597 103.716V111.838H374.729V105.247H371.063V111.838H369.195V103.716H376.597ZM384.725 105.595L381.906 112.22C381.62 112.94 381.264 113.446 380.838 113.74C380.421 114.034 379.914 114.181 379.318 114.181C378.994 114.181 378.673 114.131 378.355 114.03C378.038 113.93 377.779 113.791 377.578 113.613L378.239 112.325C378.379 112.449 378.537 112.545 378.715 112.615C378.901 112.685 379.083 112.719 379.26 112.719C379.508 112.719 379.709 112.657 379.864 112.534C380.018 112.418 380.158 112.22 380.281 111.942L380.305 111.884L377.601 105.595H379.469L381.221 109.83L382.985 105.595H384.725ZM385.598 105.595H387.397V108.032H390.112V105.595H391.922V111.838H390.112V109.505H387.397V111.838H385.598V105.595ZM396.404 109.471H395.464V111.838H393.654V105.595H395.464V108.02H396.439L398.133 105.595H400.059L397.878 108.589L400.21 111.838H398.075L396.404 109.471ZM406.286 107.08H404.175V111.838H402.376V107.08H400.265V105.595H406.286V107.08ZM369.056 120.595H370.854V124.308L373.894 120.595H375.553V126.838H373.755V123.125L370.726 126.838H369.056V120.595ZM377.293 120.595H379.091V123.032H381.806V120.595H383.616V126.838H381.806V124.505H379.091V126.838H377.293V120.595ZM393.97 123.693C393.97 124.66 393.645 125.426 392.995 125.991C392.353 126.547 391.433 126.868 390.234 126.954V129.088H388.575V126.954C387.376 126.868 386.451 126.551 385.802 126.002C385.16 125.445 384.839 124.676 384.839 123.693C384.839 122.726 385.156 121.976 385.79 121.442C386.432 120.909 387.36 120.599 388.575 120.514V118.228H390.234V120.514C391.433 120.599 392.353 120.913 392.995 121.454C393.645 121.995 393.97 122.742 393.97 123.693ZM386.591 123.693C386.591 124.25 386.749 124.679 387.066 124.981C387.383 125.283 387.886 125.472 388.575 125.55V121.918C387.886 121.988 387.383 122.169 387.066 122.463C386.749 122.75 386.591 123.16 386.591 123.693ZM390.234 125.55C390.922 125.472 391.425 125.283 391.742 124.981C392.067 124.679 392.229 124.25 392.229 123.693C392.229 123.16 392.067 122.75 391.742 122.463C391.425 122.169 390.922 121.988 390.234 121.918V125.55ZM398.119 126.93C397.462 126.93 396.87 126.795 396.344 126.524C395.826 126.246 395.42 125.863 395.126 125.376C394.832 124.888 394.685 124.335 394.685 123.716C394.685 123.098 394.832 122.545 395.126 122.057C395.42 121.57 395.826 121.191 396.344 120.92C396.87 120.642 397.462 120.503 398.119 120.503C398.777 120.503 399.365 120.642 399.883 120.92C400.401 121.191 400.807 121.57 401.101 122.057C401.395 122.545 401.542 123.098 401.542 123.716C401.542 124.335 401.395 124.888 401.101 125.376C400.807 125.863 400.401 126.246 399.883 126.524C399.365 126.795 398.777 126.93 398.119 126.93ZM398.119 125.445C398.583 125.445 398.962 125.291 399.256 124.981C399.558 124.664 399.709 124.242 399.709 123.716C399.709 123.19 399.558 122.773 399.256 122.463C398.962 122.146 398.583 121.988 398.119 121.988C397.655 121.988 397.272 122.146 396.971 122.463C396.669 122.773 396.518 123.19 396.518 123.716C396.518 124.242 396.669 124.664 396.971 124.981C397.272 125.291 397.655 125.445 398.119 125.445ZM407.788 122.08H404.585V126.838H402.787V120.595H407.788V122.08ZM412.425 120.503C413.005 120.503 413.531 120.638 414.003 120.909C414.482 121.172 414.857 121.547 415.128 122.034C415.399 122.514 415.534 123.074 415.534 123.716C415.534 124.358 415.399 124.923 415.128 125.41C414.857 125.89 414.482 126.265 414.003 126.536C413.531 126.799 413.005 126.93 412.425 126.93C411.628 126.93 411.001 126.679 410.545 126.176V129.088H408.735V120.595H410.464V121.315C410.913 120.773 411.566 120.503 412.425 120.503ZM412.111 125.445C412.576 125.445 412.955 125.291 413.248 124.981C413.55 124.664 413.701 124.242 413.701 123.716C413.701 123.19 413.55 122.773 413.248 122.463C412.955 122.146 412.576 121.988 412.111 121.988C411.647 121.988 411.264 122.146 410.963 122.463C410.669 122.773 410.522 123.19 410.522 123.716C410.522 124.242 410.669 124.664 410.963 124.981C411.264 125.291 411.647 125.445 412.111 125.445ZM419.126 120.503C420.093 120.503 420.835 120.735 421.353 121.199C421.872 121.655 422.131 122.347 422.131 123.276V126.838H420.437V126.06C420.096 126.64 419.462 126.93 418.534 126.93C418.054 126.93 417.637 126.849 417.281 126.687C416.933 126.524 416.666 126.3 416.48 126.014C416.295 125.728 416.202 125.403 416.202 125.039C416.202 124.459 416.418 124.003 416.852 123.67C417.292 123.337 417.969 123.171 418.882 123.171H420.321C420.321 122.777 420.201 122.475 419.961 122.266C419.721 122.05 419.362 121.941 418.882 121.941C418.549 121.941 418.221 121.995 417.896 122.104C417.579 122.204 417.308 122.343 417.084 122.521L416.434 121.257C416.774 121.017 417.18 120.831 417.652 120.7C418.132 120.568 418.623 120.503 419.126 120.503ZM418.986 125.712C419.296 125.712 419.57 125.642 419.81 125.503C420.05 125.356 420.22 125.144 420.321 124.865V124.227H419.079C418.337 124.227 417.965 124.471 417.965 124.958C417.965 125.19 418.054 125.376 418.232 125.515C418.418 125.646 418.669 125.712 418.986 125.712ZM432.324 123.693C432.324 124.66 431.999 125.426 431.349 125.991C430.707 126.547 429.787 126.868 428.588 126.954V129.088H426.929V126.954C425.73 126.868 424.805 126.551 424.156 126.002C423.514 125.445 423.193 124.676 423.193 123.693C423.193 122.726 423.51 121.976 424.144 121.442C424.786 120.909 425.714 120.599 426.929 120.514V118.228H428.588V120.514C429.787 120.599 430.707 120.913 431.349 121.454C431.999 121.995 432.324 122.742 432.324 123.693ZM424.945 123.693C424.945 124.25 425.103 124.679 425.42 124.981C425.737 125.283 426.24 125.472 426.929 125.55V121.918C426.24 121.988 425.737 122.169 425.42 122.463C425.103 122.75 424.945 123.16 424.945 123.693ZM428.588 125.55C429.276 125.472 429.779 125.283 430.096 124.981C430.421 124.679 430.583 124.25 430.583 123.693C430.583 123.16 430.421 122.75 430.096 122.463C429.779 122.169 429.276 121.988 428.588 121.918V125.55ZM433.549 120.595H435.348V124.308L438.388 120.595H440.047V126.838H438.248V123.125L435.22 126.838H433.549V120.595ZM444.536 124.471H443.597V126.838H441.787V120.595H443.597V123.02H444.571L446.265 120.595H448.191L446.01 123.589L448.342 126.838H446.207L444.536 124.471ZM449.231 120.595H451.029V124.308L454.069 120.595H455.728V126.838H453.93V123.125L450.902 126.838H449.231V120.595Z" fill="white"/>
<path d="M512.414 103.716V111.838H510.546V105.247H506.879V111.838H505.011V103.716H512.414ZM520.542 105.595L517.722 112.22C517.436 112.94 517.08 113.446 516.655 113.74C516.237 114.034 515.73 114.181 515.135 114.181C514.81 114.181 514.489 114.131 514.172 114.03C513.855 113.93 513.596 113.791 513.394 113.613L514.056 112.325C514.195 112.449 514.354 112.545 514.531 112.615C514.717 112.685 514.899 112.719 515.077 112.719C515.324 112.719 515.525 112.657 515.68 112.534C515.835 112.418 515.974 112.22 516.098 111.942L516.121 111.884L513.418 105.595H515.286L517.038 109.83L518.801 105.595H520.542ZM521.415 105.595H523.213V108.032H525.928V105.595H527.738V111.838H525.928V109.505H523.213V111.838H521.415V105.595ZM532.221 109.471H531.281V111.838H529.471V105.595H531.281V108.02H532.255L533.949 105.595H535.875L533.694 108.589L536.026 111.838H533.891L532.221 109.471ZM542.103 107.08H539.991V111.838H538.193V107.08H536.081V105.595H542.103V107.08ZM504.872 120.595H506.671V124.308L509.71 120.595H511.37V126.838H509.571V123.125L506.543 126.838H504.872V120.595ZM513.109 120.595H514.908V123.032H517.623V120.595H519.433V126.838H517.623V124.505H514.908V126.838H513.109V120.595ZM529.786 123.693C529.786 124.66 529.461 125.426 528.812 125.991C528.17 126.547 527.249 126.868 526.05 126.954V129.088H524.391V126.954C523.192 126.868 522.268 126.551 521.618 126.002C520.976 125.445 520.655 124.676 520.655 123.693C520.655 122.726 520.972 121.976 521.606 121.442C522.248 120.909 523.177 120.599 524.391 120.514V118.228H526.05V120.514C527.249 120.599 528.17 120.913 528.812 121.454C529.461 121.995 529.786 122.742 529.786 123.693ZM522.407 123.693C522.407 124.25 522.566 124.679 522.883 124.981C523.2 125.283 523.703 125.472 524.391 125.55V121.918C523.703 121.988 523.2 122.169 522.883 122.463C522.566 122.75 522.407 123.16 522.407 123.693ZM526.05 125.55C526.739 125.472 527.241 125.283 527.558 124.981C527.883 124.679 528.046 124.25 528.046 123.693C528.046 123.16 527.883 122.75 527.558 122.463C527.241 122.169 526.739 121.988 526.05 121.918V125.55ZM533.936 126.93C533.278 126.93 532.686 126.795 532.16 126.524C531.642 126.246 531.236 125.863 530.942 125.376C530.648 124.888 530.501 124.335 530.501 123.716C530.501 123.098 530.648 122.545 530.942 122.057C531.236 121.57 531.642 121.191 532.16 120.92C532.686 120.642 533.278 120.503 533.936 120.503C534.593 120.503 535.181 120.642 535.699 120.92C536.217 121.191 536.624 121.57 536.917 122.057C537.211 122.545 537.358 123.098 537.358 123.716C537.358 124.335 537.211 124.888 536.917 125.376C536.624 125.863 536.217 126.246 535.699 126.524C535.181 126.795 534.593 126.93 533.936 126.93ZM533.936 125.445C534.4 125.445 534.779 125.291 535.073 124.981C535.374 124.664 535.525 124.242 535.525 123.716C535.525 123.19 535.374 122.773 535.073 122.463C534.779 122.146 534.4 121.988 533.936 121.988C533.471 121.988 533.089 122.146 532.787 122.463C532.485 122.773 532.334 123.19 532.334 123.716C532.334 124.242 532.485 124.664 532.787 124.981C533.089 125.291 533.471 125.445 533.936 125.445ZM543.604 122.08H540.402V126.838H538.603V120.595H543.604V122.08ZM548.241 120.503C548.821 120.503 549.347 120.638 549.819 120.909C550.299 121.172 550.674 121.547 550.944 122.034C551.215 122.514 551.351 123.074 551.351 123.716C551.351 124.358 551.215 124.923 550.944 125.41C550.674 125.89 550.299 126.265 549.819 126.536C549.347 126.799 548.821 126.93 548.241 126.93C547.444 126.93 546.818 126.679 546.362 126.176V129.088H544.552V120.595H546.28V121.315C546.729 120.773 547.383 120.503 548.241 120.503ZM547.928 125.445C548.392 125.445 548.771 125.291 549.065 124.981C549.367 124.664 549.517 124.242 549.517 123.716C549.517 123.19 549.367 122.773 549.065 122.463C548.771 122.146 548.392 121.988 547.928 121.988C547.464 121.988 547.081 122.146 546.779 122.463C546.485 122.773 546.338 123.19 546.338 123.716C546.338 124.242 546.485 124.664 546.779 124.981C547.081 125.291 547.464 125.445 547.928 125.445ZM554.942 120.503C555.909 120.503 556.652 120.735 557.17 121.199C557.688 121.655 557.947 122.347 557.947 123.276V126.838H556.253V126.06C555.913 126.64 555.279 126.93 554.35 126.93C553.871 126.93 553.453 126.849 553.097 126.687C552.749 126.524 552.482 126.3 552.297 126.014C552.111 125.728 552.018 125.403 552.018 125.039C552.018 124.459 552.235 124.003 552.668 123.67C553.109 123.337 553.786 123.171 554.698 123.171H556.137C556.137 122.777 556.017 122.475 555.777 122.266C555.538 122.05 555.178 121.941 554.698 121.941C554.366 121.941 554.037 121.995 553.712 122.104C553.395 122.204 553.124 122.343 552.9 122.521L552.25 121.257C552.591 121.017 552.997 120.831 553.469 120.7C553.948 120.568 554.439 120.503 554.942 120.503ZM554.803 125.712C555.112 125.712 555.387 125.642 555.627 125.503C555.866 125.356 556.037 125.144 556.137 124.865V124.227H554.896C554.153 124.227 553.782 124.471 553.782 124.958C553.782 125.19 553.871 125.376 554.049 125.515C554.234 125.646 554.486 125.712 554.803 125.712ZM568.14 123.693C568.14 124.66 567.815 125.426 567.166 125.991C566.524 126.547 565.603 126.868 564.404 126.954V129.088H562.745V126.954C561.546 126.868 560.622 126.551 559.972 126.002C559.33 125.445 559.009 124.676 559.009 123.693C559.009 122.726 559.326 121.976 559.96 121.442C560.602 120.909 561.531 120.599 562.745 120.514V118.228H564.404V120.514C565.603 120.599 566.524 120.913 567.166 121.454C567.815 121.995 568.14 122.742 568.14 123.693ZM560.761 123.693C560.761 124.25 560.919 124.679 561.237 124.981C561.554 125.283 562.057 125.472 562.745 125.55V121.918C562.057 121.988 561.554 122.169 561.237 122.463C560.919 122.75 560.761 123.16 560.761 123.693ZM564.404 125.55C565.093 125.472 565.595 125.283 565.912 124.981C566.237 124.679 566.4 124.25 566.4 123.693C566.4 123.16 566.237 122.75 565.912 122.463C565.595 122.169 565.093 121.988 564.404 121.918V125.55ZM569.366 120.595H571.164V124.308L574.204 120.595H575.863V126.838H574.065V123.125L571.036 126.838H569.366V120.595ZM580.353 124.471H579.413V126.838H577.603V120.595H579.413V123.02H580.388L582.082 120.595H584.008L581.826 123.589L584.158 126.838H582.024L580.353 124.471ZM585.047 120.595H586.846V124.308L589.885 120.595H591.545V126.838H589.746V123.125L586.718 126.838H585.047V120.595Z" fill="white"/>
<path d="M648.232 103.716V111.838H646.364V105.247H642.698V111.838H640.83V103.716H648.232ZM656.36 105.595L653.541 112.22C653.254 112.94 652.899 113.446 652.473 113.74C652.055 114.034 651.549 114.181 650.953 114.181C650.628 114.181 650.307 114.131 649.99 114.03C649.673 113.93 649.414 113.791 649.213 113.613L649.874 112.325C650.013 112.449 650.172 112.545 650.35 112.615C650.535 112.685 650.717 112.719 650.895 112.719C651.143 112.719 651.344 112.657 651.499 112.534C651.653 112.418 651.792 112.22 651.916 111.942L651.939 111.884L649.236 105.595H651.104L652.856 109.83L654.62 105.595H656.36ZM657.233 105.595H659.032V108.032H661.747V105.595H663.556V111.838H661.747V109.505H659.032V111.838H657.233V105.595ZM668.039 109.471H667.099V111.838H665.289V105.595H667.099V108.02H668.074L669.768 105.595H671.694L669.512 108.589L671.845 111.838H669.71L668.039 109.471ZM677.921 107.08H675.809V111.838H674.011V107.08H671.899V105.595H677.921V107.08ZM640.691 120.595H642.489V124.308L645.529 120.595H647.188V126.838H645.39V123.125L642.361 126.838H640.691V120.595ZM648.928 120.595H650.726V123.032H653.441V120.595H655.251V126.838H653.441V124.505H650.726V126.838H648.928V120.595ZM665.605 123.693C665.605 124.66 665.28 125.426 664.63 125.991C663.988 126.547 663.067 126.868 661.869 126.954V129.088H660.209V126.954C659.01 126.868 658.086 126.551 657.436 126.002C656.794 125.445 656.473 124.676 656.473 123.693C656.473 122.726 656.79 121.976 657.425 121.442C658.067 120.909 658.995 120.599 660.209 120.514V118.228H661.869V120.514C663.067 120.599 663.988 120.913 664.63 121.454C665.28 121.995 665.605 122.742 665.605 123.693ZM658.225 123.693C658.225 124.25 658.384 124.679 658.701 124.981C659.018 125.283 659.521 125.472 660.209 125.55V121.918C659.521 121.988 659.018 122.169 658.701 122.463C658.384 122.75 658.225 123.16 658.225 123.693ZM661.869 125.55C662.557 125.472 663.06 125.283 663.377 124.981C663.702 124.679 663.864 124.25 663.864 123.693C663.864 123.16 663.702 122.75 663.377 122.463C663.06 122.169 662.557 121.988 661.869 121.918V125.55ZM669.754 126.93C669.096 126.93 668.505 126.795 667.979 126.524C667.461 126.246 667.054 125.863 666.761 125.376C666.467 124.888 666.32 124.335 666.32 123.716C666.32 123.098 666.467 122.545 666.761 122.057C667.054 121.57 667.461 121.191 667.979 120.92C668.505 120.642 669.096 120.503 669.754 120.503C670.411 120.503 670.999 120.642 671.518 120.92C672.036 121.191 672.442 121.57 672.736 122.057C673.03 122.545 673.177 123.098 673.177 123.716C673.177 124.335 673.03 124.888 672.736 125.376C672.442 125.863 672.036 126.246 671.518 126.524C670.999 126.795 670.411 126.93 669.754 126.93ZM669.754 125.445C670.218 125.445 670.597 125.291 670.891 124.981C671.193 124.664 671.343 124.242 671.343 123.716C671.343 123.19 671.193 122.773 670.891 122.463C670.597 122.146 670.218 121.988 669.754 121.988C669.29 121.988 668.907 122.146 668.605 122.463C668.304 122.773 668.153 123.19 668.153 123.716C668.153 124.242 668.304 124.664 668.605 124.981C668.907 125.291 669.29 125.445 669.754 125.445ZM679.422 122.08H676.22V126.838H674.422V120.595H679.422V122.08ZM684.059 120.503C684.64 120.503 685.166 120.638 685.637 120.909C686.117 121.172 686.492 121.547 686.763 122.034C687.034 122.514 687.169 123.074 687.169 123.716C687.169 124.358 687.034 124.923 686.763 125.41C686.492 125.89 686.117 126.265 685.637 126.536C685.166 126.799 684.64 126.93 684.059 126.93C683.263 126.93 682.636 126.679 682.18 126.176V129.088H680.37V120.595H682.099V121.315C682.547 120.773 683.201 120.503 684.059 120.503ZM683.746 125.445C684.21 125.445 684.589 125.291 684.883 124.981C685.185 124.664 685.336 124.242 685.336 123.716C685.336 123.19 685.185 122.773 684.883 122.463C684.589 122.146 684.21 121.988 683.746 121.988C683.282 121.988 682.899 122.146 682.598 122.463C682.304 122.773 682.157 123.19 682.157 123.716C682.157 124.242 682.304 124.664 682.598 124.981C682.899 125.291 683.282 125.445 683.746 125.445ZM690.76 120.503C691.727 120.503 692.47 120.735 692.988 121.199C693.506 121.655 693.766 122.347 693.766 123.276V126.838H692.072V126.06C691.731 126.64 691.097 126.93 690.169 126.93C689.689 126.93 689.271 126.849 688.916 126.687C688.568 126.524 688.301 126.3 688.115 126.014C687.929 125.728 687.837 125.403 687.837 125.039C687.837 124.459 688.053 124.003 688.486 123.67C688.927 123.337 689.604 123.171 690.517 123.171H691.956C691.956 122.777 691.836 122.475 691.596 122.266C691.356 122.05 690.996 121.941 690.517 121.941C690.184 121.941 689.855 121.995 689.531 122.104C689.213 122.204 688.943 122.343 688.718 122.521L688.069 121.257C688.409 121.017 688.815 120.831 689.287 120.7C689.767 120.568 690.258 120.503 690.76 120.503ZM690.621 125.712C690.931 125.712 691.205 125.642 691.445 125.503C691.685 125.356 691.855 125.144 691.956 124.865V124.227H690.714C689.971 124.227 689.6 124.471 689.6 124.958C689.6 125.19 689.689 125.376 689.867 125.515C690.053 125.646 690.304 125.712 690.621 125.712ZM703.958 123.693C703.958 124.66 703.634 125.426 702.984 125.991C702.342 126.547 701.421 126.868 700.222 126.954V129.088H698.563V126.954C697.364 126.868 696.44 126.551 695.79 126.002C695.148 125.445 694.827 124.676 694.827 123.693C694.827 122.726 695.144 121.976 695.779 121.442C696.421 120.909 697.349 120.599 698.563 120.514V118.228H700.222V120.514C701.421 120.599 702.342 120.913 702.984 121.454C703.634 121.995 703.958 122.742 703.958 123.693ZM696.579 123.693C696.579 124.25 696.738 124.679 697.055 124.981C697.372 125.283 697.875 125.472 698.563 125.55V121.918C697.875 121.988 697.372 122.169 697.055 122.463C696.738 122.75 696.579 123.16 696.579 123.693ZM700.222 125.55C700.911 125.472 701.414 125.283 701.731 124.981C702.056 124.679 702.218 124.25 702.218 123.693C702.218 123.16 702.056 122.75 701.731 122.463C701.414 122.169 700.911 121.988 700.222 121.918V125.55ZM705.184 120.595H706.982V124.308L710.022 120.595H711.681V126.838H709.883V123.125L706.855 126.838H705.184V120.595ZM716.171 124.471H715.231V126.838H713.421V120.595H715.231V123.02H716.206L717.9 120.595H719.826L717.645 123.589L719.977 126.838H717.842L716.171 124.471ZM720.866 120.595H722.664V124.308L725.704 120.595H727.363V126.838H725.565V123.125L722.536 126.838H720.866V120.595Z" fill="white"/>
<rect x="96.5508" y="176.278" width="85.995" height="23.8875" fill="white"/>
<path d="M96.55 200.165H182.545L112.93 283.43H1L96.55 200.165Z" fill="white"/>
<path d="M725.815 200.165H639.82L709.435 283.43H821.365L725.815 200.165Z" fill="white"/>
<rect x="232.367" y="165.358" width="85.995" height="34.8075" fill="white"/>
<path d="M232.368 200.165H318.363L290.38 283.43H177.768L232.368 200.165Z" fill="white"/>
<path d="M589.998 200.165H504.003L531.985 283.43H644.598L589.998 200.165Z" fill="white"/>
<rect x="368.186" y="134.645" width="85.995" height="65.52" fill="white"/>
<path d="M368.184 200.165H454.521L467.147 283.43H355.217L368.184 200.165Z" fill="white"/>
<rect x="504.002" y="157.85" width="85.995" height="42.315" fill="white"/>
<rect x="639.82" y="193.987" width="85.995" height="6.1425" fill="white"/>
<g style="mix-blend-mode:multiply">
<rect width="820.365" height="42.315" transform="matrix(1 0 0 -1 1 200.165)" fill="url(#paint0_linear_3126_3605)" fill-opacity="0.1"/>
</g>
<path d="M59 58.5403L0.987499 0.527771V58.5403H59Z" fill="#3AB1BA"/>
<defs>
<linearGradient id="paint0_linear_3126_3605" x1="410.182" y1="0" x2="410.182" y2="42.315" gradientUnits="userSpaceOnUse">
<stop/>
<stop offset="1" stop-opacity="0"/>
</linearGradient>
</defs>
</svg>
