<svg width="1202" height="415" viewBox="0 0 1202 415" fill="none" xmlns="http://www.w3.org/2000/svg">
<rect width="1200" height="363" transform="translate(0 51)" fill="#3AB1BA"/>
<path d="M159.6 116.7C161.8 116.7 163.817 117.167 165.65 118.1C167.483 119 168.933 120.3 170 122C171.1 123.667 171.65 125.583 171.65 127.75C171.65 130.117 171.033 132.217 169.8 134.05C168.6 135.85 166.95 137.25 164.85 138.25C162.783 139.217 160.467 139.7 157.9 139.7C152.9 139.7 148.95 138.217 146.05 135.25C143.15 132.283 141.7 128.017 141.7 122.45C141.7 118.45 142.467 115.017 144 112.15C145.567 109.25 147.75 107.05 150.55 105.55C153.35 104.05 156.6 103.3 160.3 103.3C162.3 103.3 164.2 103.517 166 103.95C167.8 104.383 169.333 105.017 170.6 105.85L167 112.95C165.3 111.75 163.15 111.15 160.55 111.15C158.017 111.15 155.967 111.85 154.4 113.25C152.833 114.65 151.933 116.667 151.7 119.3C153.7 117.567 156.333 116.7 159.6 116.7ZM157.3 132.65C158.7 132.65 159.833 132.25 160.7 131.45C161.6 130.65 162.05 129.567 162.05 128.2C162.05 126.867 161.6 125.8 160.7 125C159.833 124.2 158.683 123.8 157.25 123.8C155.817 123.8 154.65 124.217 153.75 125.05C152.85 125.85 152.4 126.917 152.4 128.25C152.4 129.55 152.833 130.617 153.7 131.45C154.6 132.25 155.8 132.65 157.3 132.65ZM181.544 122.95C178.911 122.95 176.761 122.083 175.094 120.35C173.427 118.617 172.594 116.25 172.594 113.25C172.594 111.283 172.977 109.567 173.744 108.1C174.511 106.633 175.561 105.517 176.894 104.75C178.261 103.95 179.811 103.55 181.544 103.55C184.211 103.55 186.377 104.433 188.044 106.2C189.711 107.933 190.544 110.283 190.544 113.25C190.544 116.25 189.711 118.617 188.044 120.35C186.377 122.083 184.211 122.95 181.544 122.95ZM202.244 104H209.444L185.544 139H178.344L202.244 104ZM181.544 118.2C182.444 118.2 183.161 117.8 183.694 117C184.227 116.2 184.494 114.95 184.494 113.25C184.494 111.55 184.227 110.3 183.694 109.5C183.161 108.7 182.444 108.3 181.544 108.3C180.677 108.3 179.961 108.717 179.394 109.55C178.861 110.35 178.594 111.583 178.594 113.25C178.594 114.917 178.861 116.167 179.394 117C179.961 117.8 180.677 118.2 181.544 118.2ZM206.244 139.45C203.577 139.45 201.411 138.583 199.744 136.85C198.111 135.117 197.294 132.75 197.294 129.75C197.294 126.783 198.127 124.433 199.794 122.7C201.461 120.933 203.611 120.05 206.244 120.05C208.911 120.05 211.077 120.933 212.744 122.7C214.411 124.433 215.244 126.783 215.244 129.75C215.244 132.75 214.411 135.117 212.744 136.85C211.077 138.583 208.911 139.45 206.244 139.45ZM206.244 134.7C207.144 134.7 207.861 134.3 208.394 133.5C208.927 132.7 209.194 131.45 209.194 129.75C209.194 128.05 208.927 126.8 208.394 126C207.861 125.2 207.144 124.8 206.244 124.8C205.344 124.8 204.627 125.2 204.094 126C203.561 126.8 203.294 128.05 203.294 129.75C203.294 131.45 203.561 132.7 204.094 133.5C204.627 134.3 205.344 134.7 206.244 134.7Z" fill="white"/>
<path d="M355.7 104V139H345.8V111.65H339.3V104H355.7ZM376.414 139.7C373.414 139.7 370.747 138.983 368.414 137.55C366.08 136.117 364.247 134.033 362.914 131.3C361.614 128.533 360.964 125.267 360.964 121.5C360.964 117.733 361.614 114.483 362.914 111.75C364.247 108.983 366.08 106.883 368.414 105.45C370.747 104.017 373.414 103.3 376.414 103.3C379.38 103.3 382.03 104.017 384.364 105.45C386.697 106.883 388.514 108.983 389.814 111.75C391.147 114.483 391.814 117.733 391.814 121.5C391.814 125.267 391.147 128.533 389.814 131.3C388.514 134.033 386.697 136.117 384.364 137.55C382.03 138.983 379.38 139.7 376.414 139.7ZM376.414 131.6C378.08 131.6 379.397 130.8 380.364 129.2C381.364 127.567 381.864 125 381.864 121.5C381.864 118 381.364 115.45 380.364 113.85C379.397 112.217 378.08 111.4 376.414 111.4C374.714 111.4 373.364 112.217 372.364 113.85C371.397 115.45 370.914 118 370.914 121.5C370.914 125 371.397 127.567 372.364 129.2C373.364 130.8 374.714 131.6 376.414 131.6ZM403.542 122.95C400.909 122.95 398.759 122.083 397.092 120.35C395.426 118.617 394.592 116.25 394.592 113.25C394.592 111.283 394.976 109.567 395.742 108.1C396.509 106.633 397.559 105.517 398.892 104.75C400.259 103.95 401.809 103.55 403.542 103.55C406.209 103.55 408.376 104.433 410.042 106.2C411.709 107.933 412.542 110.283 412.542 113.25C412.542 116.25 411.709 118.617 410.042 120.35C408.376 122.083 406.209 122.95 403.542 122.95ZM424.242 104H431.442L407.542 139H400.342L424.242 104ZM403.542 118.2C404.442 118.2 405.159 117.8 405.692 117C406.226 116.2 406.492 114.95 406.492 113.25C406.492 111.55 406.226 110.3 405.692 109.5C405.159 108.7 404.442 108.3 403.542 108.3C402.676 108.3 401.959 108.717 401.392 109.55C400.859 110.35 400.592 111.583 400.592 113.25C400.592 114.917 400.859 116.167 401.392 117C401.959 117.8 402.676 118.2 403.542 118.2ZM428.242 139.45C425.576 139.45 423.409 138.583 421.742 136.85C420.109 135.117 419.292 132.75 419.292 129.75C419.292 126.783 420.126 124.433 421.792 122.7C423.459 120.933 425.609 120.05 428.242 120.05C430.909 120.05 433.076 120.933 434.742 122.7C436.409 124.433 437.242 126.783 437.242 129.75C437.242 132.75 436.409 135.117 434.742 136.85C433.076 138.583 430.909 139.45 428.242 139.45ZM428.242 134.7C429.142 134.7 429.859 134.3 430.392 133.5C430.926 132.7 431.192 131.45 431.192 129.75C431.192 128.05 430.926 126.8 430.392 126C429.859 125.2 429.142 124.8 428.242 124.8C427.342 124.8 426.626 125.2 426.092 126C425.559 126.8 425.292 128.05 425.292 129.75C425.292 131.45 425.559 132.7 426.092 133.5C426.626 134.3 427.342 134.7 428.242 134.7Z" fill="white"/>
<path d="M557.6 116.7C559.8 116.7 561.817 117.167 563.65 118.1C565.483 119 566.933 120.3 568 122C569.1 123.667 569.65 125.583 569.65 127.75C569.65 130.117 569.033 132.217 567.8 134.05C566.6 135.85 564.95 137.25 562.85 138.25C560.783 139.217 558.467 139.7 555.9 139.7C550.9 139.7 546.95 138.217 544.05 135.25C541.15 132.283 539.7 128.017 539.7 122.45C539.7 118.45 540.467 115.017 542 112.15C543.567 109.25 545.75 107.05 548.55 105.55C551.35 104.05 554.6 103.3 558.3 103.3C560.3 103.3 562.2 103.517 564 103.95C565.8 104.383 567.333 105.017 568.6 105.85L565 112.95C563.3 111.75 561.15 111.15 558.55 111.15C556.017 111.15 553.967 111.85 552.4 113.25C550.833 114.65 549.933 116.667 549.7 119.3C551.7 117.567 554.333 116.7 557.6 116.7ZM555.3 132.65C556.7 132.65 557.833 132.25 558.7 131.45C559.6 130.65 560.05 129.567 560.05 128.2C560.05 126.867 559.6 125.8 558.7 125C557.833 124.2 556.683 123.8 555.25 123.8C553.817 123.8 552.65 124.217 551.75 125.05C550.85 125.85 550.4 126.917 550.4 128.25C550.4 129.55 550.833 130.617 551.7 131.45C552.6 132.25 553.8 132.65 555.3 132.65ZM584.971 103.3C590.004 103.3 593.971 104.783 596.871 107.75C599.771 110.717 601.221 114.983 601.221 120.55C601.221 124.55 600.437 128 598.871 130.9C597.337 133.767 595.154 135.95 592.321 137.45C589.521 138.95 586.271 139.7 582.571 139.7C580.604 139.7 578.721 139.467 576.921 139C575.121 138.567 573.587 137.95 572.321 137.15L575.921 130.05C577.621 131.25 579.771 131.85 582.371 131.85C584.871 131.85 586.887 131.167 588.421 129.8C589.987 128.4 590.904 126.383 591.171 123.75C589.171 125.45 586.554 126.3 583.321 126.3C581.121 126.3 579.104 125.85 577.271 124.95C575.437 124.017 573.971 122.717 572.871 121.05C571.804 119.35 571.271 117.417 571.271 115.25C571.271 112.883 571.871 110.8 573.071 109C574.304 107.167 575.954 105.767 578.021 104.8C580.121 103.8 582.437 103.3 584.971 103.3ZM585.671 119.2C587.104 119.2 588.271 118.8 589.171 118C590.071 117.167 590.521 116.083 590.521 114.75C590.521 113.45 590.071 112.4 589.171 111.6C588.304 110.767 587.121 110.35 585.621 110.35C584.221 110.35 583.071 110.75 582.171 111.55C581.304 112.35 580.871 113.433 580.871 114.8C580.871 116.133 581.304 117.2 582.171 118C583.071 118.8 584.237 119.2 585.671 119.2ZM612.991 122.95C610.358 122.95 608.208 122.083 606.541 120.35C604.875 118.617 604.041 116.25 604.041 113.25C604.041 111.283 604.425 109.567 605.191 108.1C605.958 106.633 607.008 105.517 608.341 104.75C609.708 103.95 611.258 103.55 612.991 103.55C615.658 103.55 617.825 104.433 619.491 106.2C621.158 107.933 621.991 110.283 621.991 113.25C621.991 116.25 621.158 118.617 619.491 120.35C617.825 122.083 615.658 122.95 612.991 122.95ZM633.691 104H640.891L616.991 139H609.791L633.691 104ZM612.991 118.2C613.891 118.2 614.608 117.8 615.141 117C615.675 116.2 615.941 114.95 615.941 113.25C615.941 111.55 615.675 110.3 615.141 109.5C614.608 108.7 613.891 108.3 612.991 108.3C612.125 108.3 611.408 108.717 610.841 109.55C610.308 110.35 610.041 111.583 610.041 113.25C610.041 114.917 610.308 116.167 610.841 117C611.408 117.8 612.125 118.2 612.991 118.2ZM637.691 139.45C635.025 139.45 632.858 138.583 631.191 136.85C629.558 135.117 628.741 132.75 628.741 129.75C628.741 126.783 629.575 124.433 631.241 122.7C632.908 120.933 635.058 120.05 637.691 120.05C640.358 120.05 642.525 120.933 644.191 122.7C645.858 124.433 646.691 126.783 646.691 129.75C646.691 132.75 645.858 135.117 644.191 136.85C642.525 138.583 640.358 139.45 637.691 139.45ZM637.691 134.7C638.591 134.7 639.308 134.3 639.841 133.5C640.375 132.7 640.641 131.45 640.641 129.75C640.641 128.05 640.375 126.8 639.841 126C639.308 125.2 638.591 124.8 637.691 124.8C636.791 124.8 636.075 125.2 635.541 126C635.008 126.8 634.741 128.05 634.741 129.75C634.741 131.45 635.008 132.7 635.541 133.5C636.075 134.3 636.791 134.7 637.691 134.7Z" fill="white"/>
<path d="M765.75 131.15V139H738.5V132.8L751.6 120.55C752.867 119.35 753.717 118.333 754.15 117.5C754.583 116.633 754.8 115.767 754.8 114.9C754.8 113.767 754.417 112.883 753.65 112.25C752.883 111.617 751.767 111.3 750.3 111.3C749 111.3 747.8 111.6 746.7 112.2C745.633 112.767 744.75 113.6 744.05 114.7L736.7 110.6C738.067 108.333 739.983 106.55 742.45 105.25C744.917 103.95 747.833 103.3 751.2 103.3C753.867 103.3 756.217 103.733 758.25 104.6C760.317 105.467 761.917 106.717 763.05 108.35C764.217 109.95 764.8 111.817 764.8 113.95C764.8 115.85 764.383 117.65 763.55 119.35C762.75 121.017 761.183 122.917 758.85 125.05L752.25 131.15H765.75ZM783.632 104V139H773.732V111.65H767.232V104H783.632ZM797.245 122.95C794.612 122.95 792.462 122.083 790.795 120.35C789.129 118.617 788.295 116.25 788.295 113.25C788.295 111.283 788.679 109.567 789.445 108.1C790.212 106.633 791.262 105.517 792.595 104.75C793.962 103.95 795.512 103.55 797.245 103.55C799.912 103.55 802.079 104.433 803.745 106.2C805.412 107.933 806.245 110.283 806.245 113.25C806.245 116.25 805.412 118.617 803.745 120.35C802.079 122.083 799.912 122.95 797.245 122.95ZM817.945 104H825.145L801.245 139H794.045L817.945 104ZM797.245 118.2C798.145 118.2 798.862 117.8 799.395 117C799.929 116.2 800.195 114.95 800.195 113.25C800.195 111.55 799.929 110.3 799.395 109.5C798.862 108.7 798.145 108.3 797.245 108.3C796.379 108.3 795.662 108.717 795.095 109.55C794.562 110.35 794.295 111.583 794.295 113.25C794.295 114.917 794.562 116.167 795.095 117C795.662 117.8 796.379 118.2 797.245 118.2ZM821.945 139.45C819.279 139.45 817.112 138.583 815.445 136.85C813.812 135.117 812.995 132.75 812.995 129.75C812.995 126.783 813.829 124.433 815.495 122.7C817.162 120.933 819.312 120.05 821.945 120.05C824.612 120.05 826.779 120.933 828.445 122.7C830.112 124.433 830.945 126.783 830.945 129.75C830.945 132.75 830.112 135.117 828.445 136.85C826.779 138.583 824.612 139.45 821.945 139.45ZM821.945 134.7C822.845 134.7 823.562 134.3 824.095 133.5C824.629 132.7 824.895 131.45 824.895 129.75C824.895 128.05 824.629 126.8 824.095 126C823.562 125.2 822.845 124.8 821.945 124.8C821.045 124.8 820.329 125.2 819.795 126C819.262 126.8 818.995 128.05 818.995 129.75C818.995 131.45 819.262 132.7 819.795 133.5C820.329 134.3 821.045 134.7 821.945 134.7Z" fill="white"/>
<path d="M964.75 131.15V139H937.5V132.8L950.6 120.55C951.867 119.35 952.717 118.333 953.15 117.5C953.583 116.633 953.8 115.767 953.8 114.9C953.8 113.767 953.417 112.883 952.65 112.25C951.883 111.617 950.767 111.3 949.3 111.3C948 111.3 946.8 111.6 945.7 112.2C944.633 112.767 943.75 113.6 943.05 114.7L935.7 110.6C937.067 108.333 938.983 106.55 941.45 105.25C943.917 103.95 946.833 103.3 950.2 103.3C952.867 103.3 955.217 103.733 957.25 104.6C959.317 105.467 960.917 106.717 962.05 108.35C963.217 109.95 963.8 111.817 963.8 113.95C963.8 115.85 963.383 117.65 962.55 119.35C961.75 121.017 960.183 122.917 957.85 125.05L951.25 131.15H964.75ZM976.47 122.95C973.837 122.95 971.687 122.083 970.02 120.35C968.353 118.617 967.52 116.25 967.52 113.25C967.52 111.283 967.903 109.567 968.67 108.1C969.437 106.633 970.487 105.517 971.82 104.75C973.187 103.95 974.737 103.55 976.47 103.55C979.137 103.55 981.303 104.433 982.97 106.2C984.637 107.933 985.47 110.283 985.47 113.25C985.47 116.25 984.637 118.617 982.97 120.35C981.303 122.083 979.137 122.95 976.47 122.95ZM997.17 104H1004.37L980.47 139H973.27L997.17 104ZM976.47 118.2C977.37 118.2 978.087 117.8 978.62 117C979.153 116.2 979.42 114.95 979.42 113.25C979.42 111.55 979.153 110.3 978.62 109.5C978.087 108.7 977.37 108.3 976.47 108.3C975.603 108.3 974.887 108.717 974.32 109.55C973.787 110.35 973.52 111.583 973.52 113.25C973.52 114.917 973.787 116.167 974.32 117C974.887 117.8 975.603 118.2 976.47 118.2ZM1001.17 139.45C998.503 139.45 996.337 138.583 994.67 136.85C993.037 135.117 992.22 132.75 992.22 129.75C992.22 126.783 993.053 124.433 994.72 122.7C996.387 120.933 998.537 120.05 1001.17 120.05C1003.84 120.05 1006 120.933 1007.67 122.7C1009.34 124.433 1010.17 126.783 1010.17 129.75C1010.17 132.75 1009.34 135.117 1007.67 136.85C1006 138.583 1003.84 139.45 1001.17 139.45ZM1001.17 134.7C1002.07 134.7 1002.79 134.3 1003.32 133.5C1003.85 132.7 1004.12 131.45 1004.12 129.75C1004.12 128.05 1003.85 126.8 1003.32 126C1002.79 125.2 1002.07 124.8 1001.17 124.8C1000.27 124.8 999.553 125.2 999.02 126C998.487 126.8 998.22 128.05 998.22 129.75C998.22 131.45 998.487 132.7 999.02 133.5C999.553 134.3 1000.27 134.7 1001.17 134.7Z" fill="white"/>
<path d="M152.325 151.1V163H149.588V153.344H144.216V163H141.479V151.1H152.325ZM164.234 153.854L160.103 163.561C159.684 164.615 159.162 165.357 158.539 165.788C157.927 166.219 157.185 166.434 156.312 166.434C155.836 166.434 155.366 166.36 154.901 166.213C154.436 166.066 154.057 165.862 153.762 165.601L154.731 163.714C154.935 163.895 155.167 164.037 155.428 164.139C155.7 164.241 155.966 164.292 156.227 164.292C156.59 164.292 156.884 164.201 157.111 164.02C157.338 163.85 157.542 163.561 157.723 163.153L157.757 163.068L153.796 153.854H156.533L159.1 160.059L161.684 153.854H164.234ZM165.513 153.854H168.148V157.424H172.126V153.854H174.778V163H172.126V159.583H168.148V163H165.513V153.854ZM181.346 159.532H179.969V163H177.317V153.854H179.969V157.407H181.397L183.879 153.854H186.701L183.505 158.24L186.922 163H183.794L181.346 159.532ZM195.825 156.03H192.731V163H190.096V156.03H187.002V153.854H195.825V156.03ZM141.275 175.854H143.91V181.294L148.364 175.854H150.795V185H148.16V179.56L143.723 185H141.275V175.854ZM153.344 175.854H155.979V179.424H159.957V175.854H162.609V185H159.957V181.583H155.979V185H153.344V175.854ZM177.779 180.393C177.779 181.81 177.303 182.932 176.351 183.759C175.41 184.575 174.062 185.045 172.305 185.17V188.298H169.874V185.17C168.117 185.045 166.763 184.581 165.811 183.776C164.87 182.96 164.4 181.832 164.4 180.393C164.4 178.976 164.865 177.877 165.794 177.095C166.735 176.313 168.095 175.86 169.874 175.735V172.386H172.305V175.735C174.062 175.86 175.41 176.319 176.351 177.112C177.303 177.905 177.779 178.999 177.779 180.393ZM166.967 180.393C166.967 181.209 167.199 181.838 167.664 182.28C168.129 182.722 168.865 183 169.874 183.113V177.792C168.865 177.894 168.129 178.16 167.664 178.591C167.199 179.01 166.967 179.611 166.967 180.393ZM172.305 183.113C173.314 183 174.05 182.722 174.515 182.28C174.991 181.838 175.229 181.209 175.229 180.393C175.229 179.611 174.991 179.01 174.515 178.591C174.05 178.16 173.314 177.894 172.305 177.792V183.113ZM183.859 185.136C182.895 185.136 182.028 184.938 181.258 184.541C180.498 184.133 179.903 183.572 179.473 182.858C179.042 182.144 178.827 181.334 178.827 180.427C178.827 179.52 179.042 178.71 179.473 177.996C179.903 177.282 180.498 176.727 181.258 176.33C182.028 175.922 182.895 175.718 183.859 175.718C184.822 175.718 185.683 175.922 186.443 176.33C187.202 176.727 187.797 177.282 188.228 177.996C188.658 178.71 188.874 179.52 188.874 180.427C188.874 181.334 188.658 182.144 188.228 182.858C187.797 183.572 187.202 184.133 186.443 184.541C185.683 184.938 184.822 185.136 183.859 185.136ZM183.859 182.96C184.539 182.96 185.094 182.733 185.525 182.28C185.967 181.815 186.188 181.198 186.188 180.427C186.188 179.656 185.967 179.044 185.525 178.591C185.094 178.126 184.539 177.894 183.859 177.894C183.179 177.894 182.618 178.126 182.176 178.591C181.734 179.044 181.513 179.656 181.513 180.427C181.513 181.198 181.734 181.815 182.176 182.28C182.618 182.733 183.179 182.96 183.859 182.96ZM198.025 178.03H193.333V185H190.698V175.854H198.025V178.03ZM204.819 175.718C205.669 175.718 206.44 175.916 207.131 176.313C207.834 176.698 208.384 177.248 208.78 177.962C209.177 178.665 209.375 179.486 209.375 180.427C209.375 181.368 209.177 182.195 208.78 182.909C208.384 183.612 207.834 184.161 207.131 184.558C206.44 184.943 205.669 185.136 204.819 185.136C203.652 185.136 202.734 184.768 202.065 184.031V188.298H199.413V175.854H201.946V176.908C202.604 176.115 203.561 175.718 204.819 175.718ZM204.36 182.96C205.04 182.96 205.596 182.733 206.026 182.28C206.468 181.815 206.689 181.198 206.689 180.427C206.689 179.656 206.468 179.044 206.026 178.591C205.596 178.126 205.04 177.894 204.36 177.894C203.68 177.894 203.119 178.126 202.677 178.591C202.247 179.044 202.031 179.656 202.031 180.427C202.031 181.198 202.247 181.815 202.677 182.28C203.119 182.733 203.68 182.96 204.36 182.96ZM214.638 175.718C216.054 175.718 217.142 176.058 217.902 176.738C218.661 177.407 219.041 178.421 219.041 179.781V185H216.559V183.861C216.06 184.711 215.131 185.136 213.771 185.136C213.068 185.136 212.456 185.017 211.935 184.779C211.425 184.541 211.034 184.212 210.762 183.793C210.49 183.374 210.354 182.898 210.354 182.365C210.354 181.515 210.671 180.846 211.306 180.359C211.952 179.872 212.943 179.628 214.281 179.628H216.389C216.389 179.05 216.213 178.608 215.862 178.302C215.51 177.985 214.983 177.826 214.281 177.826C213.793 177.826 213.312 177.905 212.836 178.064C212.371 178.211 211.974 178.415 211.646 178.676L210.694 176.823C211.192 176.472 211.787 176.2 212.479 176.007C213.181 175.814 213.901 175.718 214.638 175.718ZM214.434 183.351C214.887 183.351 215.289 183.249 215.641 183.045C215.992 182.83 216.241 182.518 216.389 182.11V181.175H214.57C213.482 181.175 212.938 181.532 212.938 182.246C212.938 182.586 213.068 182.858 213.329 183.062C213.601 183.255 213.969 183.351 214.434 183.351ZM233.975 180.393C233.975 181.81 233.499 182.932 232.547 183.759C231.607 184.575 230.258 185.045 228.501 185.17V188.298H226.07V185.17C224.314 185.045 222.959 184.581 222.007 183.776C221.067 182.96 220.596 181.832 220.596 180.393C220.596 178.976 221.061 177.877 221.99 177.095C222.931 176.313 224.291 175.86 226.07 175.735V172.386H228.501V175.735C230.258 175.86 231.607 176.319 232.547 177.112C233.499 177.905 233.975 178.999 233.975 180.393ZM223.163 180.393C223.163 181.209 223.396 181.838 223.86 182.28C224.325 182.722 225.062 183 226.07 183.113V177.792C225.062 177.894 224.325 178.16 223.86 178.591C223.396 179.01 223.163 179.611 223.163 180.393ZM228.501 183.113C229.51 183 230.247 182.722 230.711 182.28C231.187 181.838 231.425 181.209 231.425 180.393C231.425 179.611 231.187 179.01 230.711 178.591C230.247 178.16 229.51 177.894 228.501 177.792V183.113ZM235.771 175.854H238.406V181.294L242.86 175.854H245.291V185H242.656V179.56L238.219 185H235.771V175.854ZM251.869 181.532H250.492V185H247.84V175.854H250.492V179.407H251.92L254.402 175.854H257.224L254.028 180.24L257.445 185H254.317L251.869 181.532ZM258.748 175.854H261.383V181.294L265.837 175.854H268.268V185H265.633V179.56L261.196 185H258.748V175.854Z" fill="white"/>
<path d="M351.325 151.1V163H348.588V153.344H343.216V163H340.479V151.1H351.325ZM363.234 153.854L359.103 163.561C358.684 164.615 358.162 165.357 357.539 165.788C356.927 166.219 356.185 166.434 355.312 166.434C354.836 166.434 354.366 166.36 353.901 166.213C353.436 166.066 353.057 165.862 352.762 165.601L353.731 163.714C353.935 163.895 354.167 164.037 354.428 164.139C354.7 164.241 354.966 164.292 355.227 164.292C355.59 164.292 355.884 164.201 356.111 164.02C356.338 163.85 356.542 163.561 356.723 163.153L356.757 163.068L352.796 153.854H355.533L358.1 160.059L360.684 153.854H363.234ZM364.513 153.854H367.148V157.424H371.126V153.854H373.778V163H371.126V159.583H367.148V163H364.513V153.854ZM380.346 159.532H378.969V163H376.317V153.854H378.969V157.407H380.397L382.879 153.854H385.701L382.505 158.24L385.922 163H382.794L380.346 159.532ZM394.825 156.03H391.731V163H389.096V156.03H386.002V153.854H394.825V156.03ZM340.275 175.854H342.91V181.294L347.364 175.854H349.795V185H347.16V179.56L342.723 185H340.275V175.854ZM352.344 175.854H354.979V179.424H358.957V175.854H361.609V185H358.957V181.583H354.979V185H352.344V175.854ZM376.779 180.393C376.779 181.81 376.303 182.932 375.351 183.759C374.41 184.575 373.062 185.045 371.305 185.17V188.298H368.874V185.17C367.117 185.045 365.763 184.581 364.811 183.776C363.87 182.96 363.4 181.832 363.4 180.393C363.4 178.976 363.865 177.877 364.794 177.095C365.735 176.313 367.095 175.86 368.874 175.735V172.386H371.305V175.735C373.062 175.86 374.41 176.319 375.351 177.112C376.303 177.905 376.779 178.999 376.779 180.393ZM365.967 180.393C365.967 181.209 366.199 181.838 366.664 182.28C367.129 182.722 367.865 183 368.874 183.113V177.792C367.865 177.894 367.129 178.16 366.664 178.591C366.199 179.01 365.967 179.611 365.967 180.393ZM371.305 183.113C372.314 183 373.05 182.722 373.515 182.28C373.991 181.838 374.229 181.209 374.229 180.393C374.229 179.611 373.991 179.01 373.515 178.591C373.05 178.16 372.314 177.894 371.305 177.792V183.113ZM382.859 185.136C381.895 185.136 381.028 184.938 380.258 184.541C379.498 184.133 378.903 183.572 378.473 182.858C378.042 182.144 377.827 181.334 377.827 180.427C377.827 179.52 378.042 178.71 378.473 177.996C378.903 177.282 379.498 176.727 380.258 176.33C381.028 175.922 381.895 175.718 382.859 175.718C383.822 175.718 384.683 175.922 385.443 176.33C386.202 176.727 386.797 177.282 387.228 177.996C387.658 178.71 387.874 179.52 387.874 180.427C387.874 181.334 387.658 182.144 387.228 182.858C386.797 183.572 386.202 184.133 385.443 184.541C384.683 184.938 383.822 185.136 382.859 185.136ZM382.859 182.96C383.539 182.96 384.094 182.733 384.525 182.28C384.967 181.815 385.188 181.198 385.188 180.427C385.188 179.656 384.967 179.044 384.525 178.591C384.094 178.126 383.539 177.894 382.859 177.894C382.179 177.894 381.618 178.126 381.176 178.591C380.734 179.044 380.513 179.656 380.513 180.427C380.513 181.198 380.734 181.815 381.176 182.28C381.618 182.733 382.179 182.96 382.859 182.96ZM397.025 178.03H392.333V185H389.698V175.854H397.025V178.03ZM403.819 175.718C404.669 175.718 405.44 175.916 406.131 176.313C406.834 176.698 407.384 177.248 407.78 177.962C408.177 178.665 408.375 179.486 408.375 180.427C408.375 181.368 408.177 182.195 407.78 182.909C407.384 183.612 406.834 184.161 406.131 184.558C405.44 184.943 404.669 185.136 403.819 185.136C402.652 185.136 401.734 184.768 401.065 184.031V188.298H398.413V175.854H400.946V176.908C401.604 176.115 402.561 175.718 403.819 175.718ZM403.36 182.96C404.04 182.96 404.596 182.733 405.026 182.28C405.468 181.815 405.689 181.198 405.689 180.427C405.689 179.656 405.468 179.044 405.026 178.591C404.596 178.126 404.04 177.894 403.36 177.894C402.68 177.894 402.119 178.126 401.677 178.591C401.247 179.044 401.031 179.656 401.031 180.427C401.031 181.198 401.247 181.815 401.677 182.28C402.119 182.733 402.68 182.96 403.36 182.96ZM413.638 175.718C415.054 175.718 416.142 176.058 416.902 176.738C417.661 177.407 418.041 178.421 418.041 179.781V185H415.559V183.861C415.06 184.711 414.131 185.136 412.771 185.136C412.068 185.136 411.456 185.017 410.935 184.779C410.425 184.541 410.034 184.212 409.762 183.793C409.49 183.374 409.354 182.898 409.354 182.365C409.354 181.515 409.671 180.846 410.306 180.359C410.952 179.872 411.943 179.628 413.281 179.628H415.389C415.389 179.05 415.213 178.608 414.862 178.302C414.51 177.985 413.983 177.826 413.281 177.826C412.793 177.826 412.312 177.905 411.836 178.064C411.371 178.211 410.974 178.415 410.646 178.676L409.694 176.823C410.192 176.472 410.787 176.2 411.479 176.007C412.181 175.814 412.901 175.718 413.638 175.718ZM413.434 183.351C413.887 183.351 414.289 183.249 414.641 183.045C414.992 182.83 415.241 182.518 415.389 182.11V181.175H413.57C412.482 181.175 411.938 181.532 411.938 182.246C411.938 182.586 412.068 182.858 412.329 183.062C412.601 183.255 412.969 183.351 413.434 183.351ZM432.975 180.393C432.975 181.81 432.499 182.932 431.547 183.759C430.607 184.575 429.258 185.045 427.501 185.17V188.298H425.07V185.17C423.314 185.045 421.959 184.581 421.007 183.776C420.067 182.96 419.596 181.832 419.596 180.393C419.596 178.976 420.061 177.877 420.99 177.095C421.931 176.313 423.291 175.86 425.07 175.735V172.386H427.501V175.735C429.258 175.86 430.607 176.319 431.547 177.112C432.499 177.905 432.975 178.999 432.975 180.393ZM422.163 180.393C422.163 181.209 422.396 181.838 422.86 182.28C423.325 182.722 424.062 183 425.07 183.113V177.792C424.062 177.894 423.325 178.16 422.86 178.591C422.396 179.01 422.163 179.611 422.163 180.393ZM427.501 183.113C428.51 183 429.247 182.722 429.711 182.28C430.187 181.838 430.425 181.209 430.425 180.393C430.425 179.611 430.187 179.01 429.711 178.591C429.247 178.16 428.51 177.894 427.501 177.792V183.113ZM434.771 175.854H437.406V181.294L441.86 175.854H444.291V185H441.656V179.56L437.219 185H434.771V175.854ZM450.869 181.532H449.492V185H446.84V175.854H449.492V179.407H450.92L453.402 175.854H456.224L453.028 180.24L456.445 185H453.317L450.869 181.532ZM457.748 175.854H460.383V181.294L464.837 175.854H467.268V185H464.633V179.56L460.196 185H457.748V175.854Z" fill="white"/>
<path d="M550.325 151.1V163H547.588V153.344H542.216V163H539.479V151.1H550.325ZM562.234 153.854L558.103 163.561C557.684 164.615 557.162 165.357 556.539 165.788C555.927 166.219 555.185 166.434 554.312 166.434C553.836 166.434 553.366 166.36 552.901 166.213C552.436 166.066 552.057 165.862 551.762 165.601L552.731 163.714C552.935 163.895 553.167 164.037 553.428 164.139C553.7 164.241 553.966 164.292 554.227 164.292C554.59 164.292 554.884 164.201 555.111 164.02C555.338 163.85 555.542 163.561 555.723 163.153L555.757 163.068L551.796 153.854H554.533L557.1 160.059L559.684 153.854H562.234ZM563.513 153.854H566.148V157.424H570.126V153.854H572.778V163H570.126V159.583H566.148V163H563.513V153.854ZM579.346 159.532H577.969V163H575.317V153.854H577.969V157.407H579.397L581.879 153.854H584.701L581.505 158.24L584.922 163H581.794L579.346 159.532ZM593.825 156.03H590.731V163H588.096V156.03H585.002V153.854H593.825V156.03ZM539.275 175.854H541.91V181.294L546.364 175.854H548.795V185H546.16V179.56L541.723 185H539.275V175.854ZM551.344 175.854H553.979V179.424H557.957V175.854H560.609V185H557.957V181.583H553.979V185H551.344V175.854ZM575.779 180.393C575.779 181.81 575.303 182.932 574.351 183.759C573.41 184.575 572.062 185.045 570.305 185.17V188.298H567.874V185.17C566.117 185.045 564.763 184.581 563.811 183.776C562.87 182.96 562.4 181.832 562.4 180.393C562.4 178.976 562.865 177.877 563.794 177.095C564.735 176.313 566.095 175.86 567.874 175.735V172.386H570.305V175.735C572.062 175.86 573.41 176.319 574.351 177.112C575.303 177.905 575.779 178.999 575.779 180.393ZM564.967 180.393C564.967 181.209 565.199 181.838 565.664 182.28C566.129 182.722 566.865 183 567.874 183.113V177.792C566.865 177.894 566.129 178.16 565.664 178.591C565.199 179.01 564.967 179.611 564.967 180.393ZM570.305 183.113C571.314 183 572.05 182.722 572.515 182.28C572.991 181.838 573.229 181.209 573.229 180.393C573.229 179.611 572.991 179.01 572.515 178.591C572.05 178.16 571.314 177.894 570.305 177.792V183.113ZM581.859 185.136C580.895 185.136 580.028 184.938 579.258 184.541C578.498 184.133 577.903 183.572 577.473 182.858C577.042 182.144 576.827 181.334 576.827 180.427C576.827 179.52 577.042 178.71 577.473 177.996C577.903 177.282 578.498 176.727 579.258 176.33C580.028 175.922 580.895 175.718 581.859 175.718C582.822 175.718 583.683 175.922 584.443 176.33C585.202 176.727 585.797 177.282 586.228 177.996C586.658 178.71 586.874 179.52 586.874 180.427C586.874 181.334 586.658 182.144 586.228 182.858C585.797 183.572 585.202 184.133 584.443 184.541C583.683 184.938 582.822 185.136 581.859 185.136ZM581.859 182.96C582.539 182.96 583.094 182.733 583.525 182.28C583.967 181.815 584.188 181.198 584.188 180.427C584.188 179.656 583.967 179.044 583.525 178.591C583.094 178.126 582.539 177.894 581.859 177.894C581.179 177.894 580.618 178.126 580.176 178.591C579.734 179.044 579.513 179.656 579.513 180.427C579.513 181.198 579.734 181.815 580.176 182.28C580.618 182.733 581.179 182.96 581.859 182.96ZM596.025 178.03H591.333V185H588.698V175.854H596.025V178.03ZM602.819 175.718C603.669 175.718 604.44 175.916 605.131 176.313C605.834 176.698 606.384 177.248 606.78 177.962C607.177 178.665 607.375 179.486 607.375 180.427C607.375 181.368 607.177 182.195 606.78 182.909C606.384 183.612 605.834 184.161 605.131 184.558C604.44 184.943 603.669 185.136 602.819 185.136C601.652 185.136 600.734 184.768 600.065 184.031V188.298H597.413V175.854H599.946V176.908C600.604 176.115 601.561 175.718 602.819 175.718ZM602.36 182.96C603.04 182.96 603.596 182.733 604.026 182.28C604.468 181.815 604.689 181.198 604.689 180.427C604.689 179.656 604.468 179.044 604.026 178.591C603.596 178.126 603.04 177.894 602.36 177.894C601.68 177.894 601.119 178.126 600.677 178.591C600.247 179.044 600.031 179.656 600.031 180.427C600.031 181.198 600.247 181.815 600.677 182.28C601.119 182.733 601.68 182.96 602.36 182.96ZM612.638 175.718C614.054 175.718 615.142 176.058 615.902 176.738C616.661 177.407 617.041 178.421 617.041 179.781V185H614.559V183.861C614.06 184.711 613.131 185.136 611.771 185.136C611.068 185.136 610.456 185.017 609.935 184.779C609.425 184.541 609.034 184.212 608.762 183.793C608.49 183.374 608.354 182.898 608.354 182.365C608.354 181.515 608.671 180.846 609.306 180.359C609.952 179.872 610.943 179.628 612.281 179.628H614.389C614.389 179.05 614.213 178.608 613.862 178.302C613.51 177.985 612.983 177.826 612.281 177.826C611.793 177.826 611.312 177.905 610.836 178.064C610.371 178.211 609.974 178.415 609.646 178.676L608.694 176.823C609.192 176.472 609.787 176.2 610.479 176.007C611.181 175.814 611.901 175.718 612.638 175.718ZM612.434 183.351C612.887 183.351 613.289 183.249 613.641 183.045C613.992 182.83 614.241 182.518 614.389 182.11V181.175H612.57C611.482 181.175 610.938 181.532 610.938 182.246C610.938 182.586 611.068 182.858 611.329 183.062C611.601 183.255 611.969 183.351 612.434 183.351ZM631.975 180.393C631.975 181.81 631.499 182.932 630.547 183.759C629.607 184.575 628.258 185.045 626.501 185.17V188.298H624.07V185.17C622.314 185.045 620.959 184.581 620.007 183.776C619.067 182.96 618.596 181.832 618.596 180.393C618.596 178.976 619.061 177.877 619.99 177.095C620.931 176.313 622.291 175.86 624.07 175.735V172.386H626.501V175.735C628.258 175.86 629.607 176.319 630.547 177.112C631.499 177.905 631.975 178.999 631.975 180.393ZM621.163 180.393C621.163 181.209 621.396 181.838 621.86 182.28C622.325 182.722 623.062 183 624.07 183.113V177.792C623.062 177.894 622.325 178.16 621.86 178.591C621.396 179.01 621.163 179.611 621.163 180.393ZM626.501 183.113C627.51 183 628.247 182.722 628.711 182.28C629.187 181.838 629.425 181.209 629.425 180.393C629.425 179.611 629.187 179.01 628.711 178.591C628.247 178.16 627.51 177.894 626.501 177.792V183.113ZM633.771 175.854H636.406V181.294L640.86 175.854H643.291V185H640.656V179.56L636.219 185H633.771V175.854ZM649.869 181.532H648.492V185H645.84V175.854H648.492V179.407H649.92L652.402 175.854H655.224L652.028 180.24L655.445 185H652.317L649.869 181.532ZM656.748 175.854H659.383V181.294L663.837 175.854H666.268V185H663.633V179.56L659.196 185H656.748V175.854Z" fill="white"/>
<path d="M749.325 151.1V163H746.588V153.344H741.216V163H738.479V151.1H749.325ZM761.234 153.854L757.103 163.561C756.684 164.615 756.162 165.357 755.539 165.788C754.927 166.219 754.185 166.434 753.312 166.434C752.836 166.434 752.366 166.36 751.901 166.213C751.436 166.066 751.057 165.862 750.762 165.601L751.731 163.714C751.935 163.895 752.167 164.037 752.428 164.139C752.7 164.241 752.966 164.292 753.227 164.292C753.59 164.292 753.884 164.201 754.111 164.02C754.338 163.85 754.542 163.561 754.723 163.153L754.757 163.068L750.796 153.854H753.533L756.1 160.059L758.684 153.854H761.234ZM762.513 153.854H765.148V157.424H769.126V153.854H771.778V163H769.126V159.583H765.148V163H762.513V153.854ZM778.346 159.532H776.969V163H774.317V153.854H776.969V157.407H778.397L780.879 153.854H783.701L780.505 158.24L783.922 163H780.794L778.346 159.532ZM792.825 156.03H789.731V163H787.096V156.03H784.002V153.854H792.825V156.03ZM738.275 175.854H740.91V181.294L745.364 175.854H747.795V185H745.16V179.56L740.723 185H738.275V175.854ZM750.344 175.854H752.979V179.424H756.957V175.854H759.609V185H756.957V181.583H752.979V185H750.344V175.854ZM774.779 180.393C774.779 181.81 774.303 182.932 773.351 183.759C772.41 184.575 771.062 185.045 769.305 185.17V188.298H766.874V185.17C765.117 185.045 763.763 184.581 762.811 183.776C761.87 182.96 761.4 181.832 761.4 180.393C761.4 178.976 761.865 177.877 762.794 177.095C763.735 176.313 765.095 175.86 766.874 175.735V172.386H769.305V175.735C771.062 175.86 772.41 176.319 773.351 177.112C774.303 177.905 774.779 178.999 774.779 180.393ZM763.967 180.393C763.967 181.209 764.199 181.838 764.664 182.28C765.129 182.722 765.865 183 766.874 183.113V177.792C765.865 177.894 765.129 178.16 764.664 178.591C764.199 179.01 763.967 179.611 763.967 180.393ZM769.305 183.113C770.314 183 771.05 182.722 771.515 182.28C771.991 181.838 772.229 181.209 772.229 180.393C772.229 179.611 771.991 179.01 771.515 178.591C771.05 178.16 770.314 177.894 769.305 177.792V183.113ZM780.859 185.136C779.895 185.136 779.028 184.938 778.258 184.541C777.498 184.133 776.903 183.572 776.473 182.858C776.042 182.144 775.827 181.334 775.827 180.427C775.827 179.52 776.042 178.71 776.473 177.996C776.903 177.282 777.498 176.727 778.258 176.33C779.028 175.922 779.895 175.718 780.859 175.718C781.822 175.718 782.683 175.922 783.443 176.33C784.202 176.727 784.797 177.282 785.228 177.996C785.658 178.71 785.874 179.52 785.874 180.427C785.874 181.334 785.658 182.144 785.228 182.858C784.797 183.572 784.202 184.133 783.443 184.541C782.683 184.938 781.822 185.136 780.859 185.136ZM780.859 182.96C781.539 182.96 782.094 182.733 782.525 182.28C782.967 181.815 783.188 181.198 783.188 180.427C783.188 179.656 782.967 179.044 782.525 178.591C782.094 178.126 781.539 177.894 780.859 177.894C780.179 177.894 779.618 178.126 779.176 178.591C778.734 179.044 778.513 179.656 778.513 180.427C778.513 181.198 778.734 181.815 779.176 182.28C779.618 182.733 780.179 182.96 780.859 182.96ZM795.025 178.03H790.333V185H787.698V175.854H795.025V178.03ZM801.819 175.718C802.669 175.718 803.44 175.916 804.131 176.313C804.834 176.698 805.384 177.248 805.78 177.962C806.177 178.665 806.375 179.486 806.375 180.427C806.375 181.368 806.177 182.195 805.78 182.909C805.384 183.612 804.834 184.161 804.131 184.558C803.44 184.943 802.669 185.136 801.819 185.136C800.652 185.136 799.734 184.768 799.065 184.031V188.298H796.413V175.854H798.946V176.908C799.604 176.115 800.561 175.718 801.819 175.718ZM801.36 182.96C802.04 182.96 802.596 182.733 803.026 182.28C803.468 181.815 803.689 181.198 803.689 180.427C803.689 179.656 803.468 179.044 803.026 178.591C802.596 178.126 802.04 177.894 801.36 177.894C800.68 177.894 800.119 178.126 799.677 178.591C799.247 179.044 799.031 179.656 799.031 180.427C799.031 181.198 799.247 181.815 799.677 182.28C800.119 182.733 800.68 182.96 801.36 182.96ZM811.638 175.718C813.054 175.718 814.142 176.058 814.902 176.738C815.661 177.407 816.041 178.421 816.041 179.781V185H813.559V183.861C813.06 184.711 812.131 185.136 810.771 185.136C810.068 185.136 809.456 185.017 808.935 184.779C808.425 184.541 808.034 184.212 807.762 183.793C807.49 183.374 807.354 182.898 807.354 182.365C807.354 181.515 807.671 180.846 808.306 180.359C808.952 179.872 809.943 179.628 811.281 179.628H813.389C813.389 179.05 813.213 178.608 812.862 178.302C812.51 177.985 811.983 177.826 811.281 177.826C810.793 177.826 810.312 177.905 809.836 178.064C809.371 178.211 808.974 178.415 808.646 178.676L807.694 176.823C808.192 176.472 808.787 176.2 809.479 176.007C810.181 175.814 810.901 175.718 811.638 175.718ZM811.434 183.351C811.887 183.351 812.289 183.249 812.641 183.045C812.992 182.83 813.241 182.518 813.389 182.11V181.175H811.57C810.482 181.175 809.938 181.532 809.938 182.246C809.938 182.586 810.068 182.858 810.329 183.062C810.601 183.255 810.969 183.351 811.434 183.351ZM830.975 180.393C830.975 181.81 830.499 182.932 829.547 183.759C828.607 184.575 827.258 185.045 825.501 185.17V188.298H823.07V185.17C821.314 185.045 819.959 184.581 819.007 183.776C818.067 182.96 817.596 181.832 817.596 180.393C817.596 178.976 818.061 177.877 818.99 177.095C819.931 176.313 821.291 175.86 823.07 175.735V172.386H825.501V175.735C827.258 175.86 828.607 176.319 829.547 177.112C830.499 177.905 830.975 178.999 830.975 180.393ZM820.163 180.393C820.163 181.209 820.396 181.838 820.86 182.28C821.325 182.722 822.062 183 823.07 183.113V177.792C822.062 177.894 821.325 178.16 820.86 178.591C820.396 179.01 820.163 179.611 820.163 180.393ZM825.501 183.113C826.51 183 827.247 182.722 827.711 182.28C828.187 181.838 828.425 181.209 828.425 180.393C828.425 179.611 828.187 179.01 827.711 178.591C827.247 178.16 826.51 177.894 825.501 177.792V183.113ZM832.771 175.854H835.406V181.294L839.86 175.854H842.291V185H839.656V179.56L835.219 185H832.771V175.854ZM848.869 181.532H847.492V185H844.84V175.854H847.492V179.407H848.92L851.402 175.854H854.224L851.028 180.24L854.445 185H851.317L848.869 181.532ZM855.748 175.854H858.383V181.294L862.837 175.854H865.268V185H862.633V179.56L858.196 185H855.748V175.854Z" fill="white"/>
<path d="M948.325 151.1V163H945.588V153.344H940.216V163H937.479V151.1H948.325ZM960.234 153.854L956.103 163.561C955.684 164.615 955.162 165.357 954.539 165.788C953.927 166.219 953.185 166.434 952.312 166.434C951.836 166.434 951.366 166.36 950.901 166.213C950.436 166.066 950.057 165.862 949.762 165.601L950.731 163.714C950.935 163.895 951.167 164.037 951.428 164.139C951.7 164.241 951.966 164.292 952.227 164.292C952.59 164.292 952.884 164.201 953.111 164.02C953.338 163.85 953.542 163.561 953.723 163.153L953.757 163.068L949.796 153.854H952.533L955.1 160.059L957.684 153.854H960.234ZM961.513 153.854H964.148V157.424H968.126V153.854H970.778V163H968.126V159.583H964.148V163H961.513V153.854ZM977.346 159.532H975.969V163H973.317V153.854H975.969V157.407H977.397L979.879 153.854H982.701L979.505 158.24L982.922 163H979.794L977.346 159.532ZM991.825 156.03H988.731V163H986.096V156.03H983.002V153.854H991.825V156.03ZM937.275 175.854H939.91V181.294L944.364 175.854H946.795V185H944.16V179.56L939.723 185H937.275V175.854ZM949.344 175.854H951.979V179.424H955.957V175.854H958.609V185H955.957V181.583H951.979V185H949.344V175.854ZM973.779 180.393C973.779 181.81 973.303 182.932 972.351 183.759C971.41 184.575 970.062 185.045 968.305 185.17V188.298H965.874V185.17C964.117 185.045 962.763 184.581 961.811 183.776C960.87 182.96 960.4 181.832 960.4 180.393C960.4 178.976 960.865 177.877 961.794 177.095C962.735 176.313 964.095 175.86 965.874 175.735V172.386H968.305V175.735C970.062 175.86 971.41 176.319 972.351 177.112C973.303 177.905 973.779 178.999 973.779 180.393ZM962.967 180.393C962.967 181.209 963.199 181.838 963.664 182.28C964.129 182.722 964.865 183 965.874 183.113V177.792C964.865 177.894 964.129 178.16 963.664 178.591C963.199 179.01 962.967 179.611 962.967 180.393ZM968.305 183.113C969.314 183 970.05 182.722 970.515 182.28C970.991 181.838 971.229 181.209 971.229 180.393C971.229 179.611 970.991 179.01 970.515 178.591C970.05 178.16 969.314 177.894 968.305 177.792V183.113ZM979.859 185.136C978.895 185.136 978.028 184.938 977.258 184.541C976.498 184.133 975.903 183.572 975.473 182.858C975.042 182.144 974.827 181.334 974.827 180.427C974.827 179.52 975.042 178.71 975.473 177.996C975.903 177.282 976.498 176.727 977.258 176.33C978.028 175.922 978.895 175.718 979.859 175.718C980.822 175.718 981.683 175.922 982.443 176.33C983.202 176.727 983.797 177.282 984.228 177.996C984.658 178.71 984.874 179.52 984.874 180.427C984.874 181.334 984.658 182.144 984.228 182.858C983.797 183.572 983.202 184.133 982.443 184.541C981.683 184.938 980.822 185.136 979.859 185.136ZM979.859 182.96C980.539 182.96 981.094 182.733 981.525 182.28C981.967 181.815 982.188 181.198 982.188 180.427C982.188 179.656 981.967 179.044 981.525 178.591C981.094 178.126 980.539 177.894 979.859 177.894C979.179 177.894 978.618 178.126 978.176 178.591C977.734 179.044 977.513 179.656 977.513 180.427C977.513 181.198 977.734 181.815 978.176 182.28C978.618 182.733 979.179 182.96 979.859 182.96ZM994.025 178.03H989.333V185H986.698V175.854H994.025V178.03ZM1000.82 175.718C1001.67 175.718 1002.44 175.916 1003.13 176.313C1003.83 176.698 1004.38 177.248 1004.78 177.962C1005.18 178.665 1005.38 179.486 1005.38 180.427C1005.38 181.368 1005.18 182.195 1004.78 182.909C1004.38 183.612 1003.83 184.161 1003.13 184.558C1002.44 184.943 1001.67 185.136 1000.82 185.136C999.652 185.136 998.734 184.768 998.065 184.031V188.298H995.413V175.854H997.946V176.908C998.604 176.115 999.561 175.718 1000.82 175.718ZM1000.36 182.96C1001.04 182.96 1001.6 182.733 1002.03 182.28C1002.47 181.815 1002.69 181.198 1002.69 180.427C1002.69 179.656 1002.47 179.044 1002.03 178.591C1001.6 178.126 1001.04 177.894 1000.36 177.894C999.68 177.894 999.119 178.126 998.677 178.591C998.247 179.044 998.031 179.656 998.031 180.427C998.031 181.198 998.247 181.815 998.677 182.28C999.119 182.733 999.68 182.96 1000.36 182.96ZM1010.64 175.718C1012.05 175.718 1013.14 176.058 1013.9 176.738C1014.66 177.407 1015.04 178.421 1015.04 179.781V185H1012.56V183.861C1012.06 184.711 1011.13 185.136 1009.77 185.136C1009.07 185.136 1008.46 185.017 1007.93 184.779C1007.42 184.541 1007.03 184.212 1006.76 183.793C1006.49 183.374 1006.35 182.898 1006.35 182.365C1006.35 181.515 1006.67 180.846 1007.31 180.359C1007.95 179.872 1008.94 179.628 1010.28 179.628H1012.39C1012.39 179.05 1012.21 178.608 1011.86 178.302C1011.51 177.985 1010.98 177.826 1010.28 177.826C1009.79 177.826 1009.31 177.905 1008.84 178.064C1008.37 178.211 1007.97 178.415 1007.65 178.676L1006.69 176.823C1007.19 176.472 1007.79 176.2 1008.48 176.007C1009.18 175.814 1009.9 175.718 1010.64 175.718ZM1010.43 183.351C1010.89 183.351 1011.29 183.249 1011.64 183.045C1011.99 182.83 1012.24 182.518 1012.39 182.11V181.175H1010.57C1009.48 181.175 1008.94 181.532 1008.94 182.246C1008.94 182.586 1009.07 182.858 1009.33 183.062C1009.6 183.255 1009.97 183.351 1010.43 183.351ZM1029.98 180.393C1029.98 181.81 1029.5 182.932 1028.55 183.759C1027.61 184.575 1026.26 185.045 1024.5 185.17V188.298H1022.07V185.17C1020.31 185.045 1018.96 184.581 1018.01 183.776C1017.07 182.96 1016.6 181.832 1016.6 180.393C1016.6 178.976 1017.06 177.877 1017.99 177.095C1018.93 176.313 1020.29 175.86 1022.07 175.735V172.386H1024.5V175.735C1026.26 175.86 1027.61 176.319 1028.55 177.112C1029.5 177.905 1029.98 178.999 1029.98 180.393ZM1019.16 180.393C1019.16 181.209 1019.4 181.838 1019.86 182.28C1020.33 182.722 1021.06 183 1022.07 183.113V177.792C1021.06 177.894 1020.33 178.16 1019.86 178.591C1019.4 179.01 1019.16 179.611 1019.16 180.393ZM1024.5 183.113C1025.51 183 1026.25 182.722 1026.71 182.28C1027.19 181.838 1027.43 181.209 1027.43 180.393C1027.43 179.611 1027.19 179.01 1026.71 178.591C1026.25 178.16 1025.51 177.894 1024.5 177.792V183.113ZM1031.77 175.854H1034.41V181.294L1038.86 175.854H1041.29V185H1038.66V179.56L1034.22 185H1031.77V175.854ZM1047.87 181.532H1046.49V185H1043.84V175.854H1046.49V179.407H1047.92L1050.4 175.854H1053.22L1050.03 180.24L1053.45 185H1050.32L1047.87 181.532ZM1054.75 175.854H1057.38V181.294L1061.84 175.854H1064.27V185H1061.63V179.56L1057.2 185H1054.75V175.854Z" fill="white"/>
<rect x="140" y="258" width="126" height="35" fill="white"/>
<path d="M140 293H266L164 415H0L140 293Z" fill="white"/>
<path d="M1062 293H936L1038 415H1202L1062 293Z" fill="white"/>
<rect x="339" y="242" width="126" height="51" fill="white"/>
<path d="M339 293H465L424 415H259L339 293Z" fill="white"/>
<path d="M863 293H737L778 415H943L863 293Z" fill="white"/>
<rect x="538" y="197" width="126" height="96" fill="white"/>
<path d="M538 293H664.5L683 415H519L538 293Z" fill="white"/>
<rect x="737" y="231" width="126" height="62" fill="white"/>
<rect x="936" y="283.947" width="126" height="9" fill="white"/>
<g style="mix-blend-mode:multiply">
<rect width="1202" height="62" transform="matrix(1 0 0 -1 0 293)" fill="url(#paint0_linear_3062_3605)" fill-opacity="0.1"/>
</g>
<path d="M385 85.4912L300 0.491211V85.4912H385Z" fill="#3AB1BA"/>
<defs>
<linearGradient id="paint0_linear_3062_3605" x1="601" y1="0" x2="601" y2="62" gradientUnits="userSpaceOnUse">
<stop/>
<stop offset="1" stop-opacity="0"/>
</linearGradient>
</defs>
</svg>
